# MagicaVoxel @ Ephtracy

# group
o 

# material
mtllib sheep.mtl
usemtl palette

# normals
vn -1 0 0
vn 1 0 0
vn 0 0 1
vn 0 0 -1
vn 0 -1 0
vn 0 1 0

# texcoords
vt 0.962891 0.5
vt 0.974609 0.5
vt 0.982422 0.5
vt 0.994141 0.5

# verts
v -0.5 0.3 0.1
v -0.5 0.3 -0.2
v -0.5 0.6 0.1
v -0.5 0.6 -0.2
v -0.4 0.1 0.2
v -0.4 0.1 -0.3
v -0.4 0.2 0.3
v -0.4 0.2 0.2
v -0.4 0.2 -0.3
v -0.4 0.2 -0.4
v -0.4 0.3 0.1
v -0.4 0.3 -0.2
v -0.4 0.6 0.1
v -0.4 0.6 -0.2
v -0.4 0.7 0.3
v -0.4 0.7 0.2
v -0.4 0.7 -0.3
v -0.4 0.7 -0.4
v -0.4 0.8 0.2
v -0.4 0.8 -0.3
v -0.3 0 0.2
v -0.3 0 0.1
v -0.3 0 -0.2
v -0.3 0 -0.3
v -0.3 0.1 0.3
v -0.3 0.1 0.2
v -0.3 0.1 0.1
v -0.3 0.1 -0.2
v -0.3 0.1 -0.3
v -0.3 0.1 -0.4
v -0.3 0.2 0.3
v -0.3 0.2 0.2
v -0.3 0.2 -0.3
v -0.3 0.2 -0.4
v -0.3 0.7 0.3
v -0.3 0.7 0.2
v -0.3 0.7 -0.3
v -0.3 0.7 -0.4
v -0.3 0.8 0.3
v -0.3 0.8 0.2
v -0.3 0.8 -0.3
v -0.3 0.8 -0.4
v 0.1 0 0.2
v 0.1 0 0.1
v 0.1 0 -0.2
v 0.1 0 -0.3
v 0.1 0.1 0.2
v 0.1 0.1 0.1
v 0.1 0.1 -0.2
v 0.1 0.1 -0.3
v -0.2 0 0.2
v -0.2 0 0.1
v -0.2 0 -0.2
v -0.2 0 -0.3
v -0.2 0.1 0.2
v -0.2 0.1 0.1
v -0.2 0.1 -0.2
v -0.2 0.1 -0.3
v 0.2 0 0.2
v 0.2 0 0.1
v 0.2 0 -0.2
v 0.2 0 -0.3
v 0.2 0.1 0.3
v 0.2 0.1 0.2
v 0.2 0.1 0.1
v 0.2 0.1 -0.2
v 0.2 0.1 -0.3
v 0.2 0.1 -0.4
v 0.2 0.2 0.3
v 0.2 0.2 0.2
v 0.2 0.2 -0.3
v 0.2 0.2 -0.4
v 0.2 0.7 0.3
v 0.2 0.7 0.2
v 0.2 0.7 -0.3
v 0.2 0.7 -0.4
v 0.2 0.8 0.3
v 0.2 0.8 0.2
v 0.2 0.8 -0.3
v 0.2 0.8 -0.4
v 0.3 0.1 0.2
v 0.3 0.1 -0.3
v 0.3 0.2 0.3
v 0.3 0.2 0.2
v 0.3 0.2 -0.3
v 0.3 0.2 -0.4
v 0.3 0.3 0.2
v 0.3 0.3 -0.3
v 0.3 0.7 0.3
v 0.3 0.7 0.2
v 0.3 0.7 0.1
v 0.3 0.7 -0.2
v 0.3 0.7 -0.3
v 0.3 0.7 -0.4
v 0.3 0.8 0.2
v 0.3 0.8 0.1
v 0.3 0.8 -0.2
v 0.3 0.8 -0.3
v 0.4 0.3 0.2
v 0.4 0.3 0.1
v 0.4 0.3 -0.2
v 0.4 0.3 -0.3
v 0.4 0.5 0.1
v 0.4 0.5 0
v 0.4 0.5 -0.1
v 0.4 0.5 -0.2
v 0.4 0.6 0.1
v 0.4 0.6 0
v 0.4 0.6 -0.1
v 0.4 0.6 -0.2
v 0.4 0.7 0.2
v 0.4 0.7 0.1
v 0.4 0.7 -0.2
v 0.4 0.7 -0.3
v 0.4 0.8 0.1
v 0.4 0.8 -0.2
v 0.6 0.3 0.1
v 0.6 0.3 -0.2
v 0.6 0.5 0.1
v 0.6 0.5 -0.2
v -0.4 0.2 0.3
v -0.4 0.7 0.3
v -0.3 0.1 0.3
v -0.3 0.2 0.3
v -0.3 0.7 0.3
v -0.3 0.8 0.3
v 0.2 0.1 0.3
v 0.2 0.2 0.3
v 0.2 0.7 0.3
v 0.2 0.8 0.3
v 0.3 0.2 0.3
v 0.3 0.7 0.3
v -0.4 0.1 0.2
v -0.4 0.2 0.2
v -0.4 0.7 0.2
v -0.4 0.8 0.2
v -0.3 0 0.2
v -0.3 0.1 0.2
v -0.3 0.2 0.2
v -0.3 0.7 0.2
v -0.3 0.8 0.2
v -0.2 0 0.2
v -0.2 0.1 0.2
v 0.1 0 0.2
v 0.1 0.1 0.2
v 0.2 0 0.2
v 0.2 0.1 0.2
v 0.2 0.2 0.2
v 0.2 0.7 0.2
v 0.2 0.8 0.2
v 0.3 0.1 0.2
v 0.3 0.2 0.2
v 0.3 0.3 0.2
v 0.3 0.7 0.2
v 0.3 0.8 0.2
v 0.4 0.3 0.2
v 0.4 0.7 0.2
v -0.5 0.3 0.1
v -0.5 0.6 0.1
v -0.4 0.3 0.1
v -0.4 0.6 0.1
v 0.3 0.7 0.1
v 0.3 0.8 0.1
v 0.4 0.3 0.1
v 0.4 0.5 0.1
v 0.4 0.7 0.1
v 0.4 0.8 0.1
v 0.6 0.3 0.1
v 0.6 0.5 0.1
v -0.3 0 -0.2
v -0.3 0.1 -0.2
v -0.2 0 -0.2
v -0.2 0.1 -0.2
v 0.1 0 -0.2
v 0.1 0.1 -0.2
v 0.2 0 -0.2
v 0.2 0.1 -0.2
v -0.3 0 0.1
v -0.3 0.1 0.1
v -0.2 0 0.1
v -0.2 0.1 0.1
v 0.1 0 0.1
v 0.1 0.1 0.1
v 0.2 0 0.1
v 0.2 0.1 0.1
v -0.5 0.3 -0.2
v -0.5 0.6 -0.2
v -0.4 0.3 -0.2
v -0.4 0.6 -0.2
v 0.3 0.7 -0.2
v 0.3 0.8 -0.2
v 0.4 0.3 -0.2
v 0.4 0.5 -0.2
v 0.4 0.7 -0.2
v 0.4 0.8 -0.2
v 0.6 0.3 -0.2
v 0.6 0.5 -0.2
v -0.4 0.1 -0.3
v -0.4 0.2 -0.3
v -0.4 0.7 -0.3
v -0.4 0.8 -0.3
v -0.3 0 -0.3
v -0.3 0.1 -0.3
v -0.3 0.2 -0.3
v -0.3 0.7 -0.3
v -0.3 0.8 -0.3
v -0.2 0 -0.3
v -0.2 0.1 -0.3
v 0.1 0 -0.3
v 0.1 0.1 -0.3
v 0.2 0 -0.3
v 0.2 0.1 -0.3
v 0.2 0.2 -0.3
v 0.2 0.7 -0.3
v 0.2 0.8 -0.3
v 0.3 0.1 -0.3
v 0.3 0.2 -0.3
v 0.3 0.3 -0.3
v 0.3 0.7 -0.3
v 0.3 0.8 -0.3
v 0.4 0.3 -0.3
v 0.4 0.7 -0.3
v -0.4 0.2 -0.4
v -0.4 0.7 -0.4
v -0.3 0.1 -0.4
v -0.3 0.2 -0.4
v -0.3 0.7 -0.4
v -0.3 0.8 -0.4
v 0.2 0.1 -0.4
v 0.2 0.2 -0.4
v 0.2 0.7 -0.4
v 0.2 0.8 -0.4
v 0.3 0.2 -0.4
v 0.3 0.7 -0.4
v -0.3 0 0.2
v -0.2 0 0.2
v 0.1 0 0.2
v 0.2 0 0.2
v -0.3 0 0.1
v -0.2 0 0.1
v 0.1 0 0.1
v 0.2 0 0.1
v -0.3 0 -0.2
v -0.2 0 -0.2
v 0.1 0 -0.2
v 0.2 0 -0.2
v -0.3 0 -0.3
v -0.2 0 -0.3
v 0.1 0 -0.3
v 0.2 0 -0.3
v -0.3 0.1 0.3
v 0.2 0.1 0.3
v -0.4 0.1 0.2
v -0.3 0.1 0.2
v -0.2 0.1 0.2
v 0.1 0.1 0.2
v 0.2 0.1 0.2
v 0.3 0.1 0.2
v -0.3 0.1 0.1
v -0.2 0.1 0.1
v 0.1 0.1 0.1
v 0.2 0.1 0.1
v -0.3 0.1 -0.2
v -0.2 0.1 -0.2
v 0.1 0.1 -0.2
v 0.2 0.1 -0.2
v -0.4 0.1 -0.3
v -0.3 0.1 -0.3
v -0.2 0.1 -0.3
v 0.1 0.1 -0.3
v 0.2 0.1 -0.3
v 0.3 0.1 -0.3
v -0.3 0.1 -0.4
v 0.2 0.1 -0.4
v -0.4 0.2 0.3
v -0.3 0.2 0.3
v 0.2 0.2 0.3
v 0.3 0.2 0.3
v -0.4 0.2 0.2
v -0.3 0.2 0.2
v 0.2 0.2 0.2
v 0.3 0.2 0.2
v -0.4 0.2 -0.3
v -0.3 0.2 -0.3
v 0.2 0.2 -0.3
v 0.3 0.2 -0.3
v -0.4 0.2 -0.4
v -0.3 0.2 -0.4
v 0.2 0.2 -0.4
v 0.3 0.2 -0.4
v 0.3 0.3 0.2
v 0.4 0.3 0.2
v -0.5 0.3 0.1
v -0.4 0.3 0.1
v 0.4 0.3 0.1
v 0.6 0.3 0.1
v -0.5 0.3 -0.2
v -0.4 0.3 -0.2
v 0.4 0.3 -0.2
v 0.6 0.3 -0.2
v 0.3 0.3 -0.3
v 0.4 0.3 -0.3
v 0.4 0.5 0.1
v 0.6 0.5 0.1
v 0.4 0.5 0
v 0.4 0.5 -0.1
v 0.4 0.5 -0.2
v 0.6 0.5 -0.2
v -0.5 0.6 0.1
v -0.4 0.6 0.1
v -0.5 0.6 -0.2
v -0.4 0.6 -0.2
v -0.4 0.7 0.3
v -0.3 0.7 0.3
v 0.2 0.7 0.3
v 0.3 0.7 0.3
v -0.4 0.7 0.2
v -0.3 0.7 0.2
v 0.2 0.7 0.2
v 0.3 0.7 0.2
v 0.4 0.7 0.2
v 0.3 0.7 0.1
v 0.4 0.7 0.1
v 0.3 0.7 -0.2
v 0.4 0.7 -0.2
v -0.4 0.7 -0.3
v -0.3 0.7 -0.3
v 0.2 0.7 -0.3
v 0.3 0.7 -0.3
v 0.4 0.7 -0.3
v -0.4 0.7 -0.4
v -0.3 0.7 -0.4
v 0.2 0.7 -0.4
v 0.3 0.7 -0.4
v -0.3 0.8 0.3
v 0.2 0.8 0.3
v -0.4 0.8 0.2
v -0.3 0.8 0.2
v 0.2 0.8 0.2
v 0.3 0.8 0.2
v 0.3 0.8 0.1
v 0.4 0.8 0.1
v 0.3 0.8 -0.2
v 0.4 0.8 -0.2
v -0.4 0.8 -0.3
v -0.3 0.8 -0.3
v 0.2 0.8 -0.3
v 0.3 0.8 -0.3
v -0.3 0.8 -0.4
v 0.2 0.8 -0.4

# faces
f 3/1/1 2/1/1 1/1/1
f 4/1/1 2/1/1 3/1/1
f 8/1/1 6/1/1 5/1/1
f 9/1/1 6/1/1 8/1/1
f 11/1/1 8/1/1 7/1/1
f 11/1/1 10/1/1 9/1/1
f 11/1/1 9/1/1 8/1/1
f 12/1/1 10/1/1 11/1/1
f 13/1/1 11/1/1 7/1/1
f 14/1/1 10/1/1 12/1/1
f 15/1/1 13/1/1 7/1/1
f 15/1/1 14/1/1 13/1/1
f 16/1/1 14/1/1 15/1/1
f 17/1/1 10/1/1 14/1/1
f 17/1/1 14/1/1 16/1/1
f 18/1/1 10/1/1 17/1/1
f 19/1/1 17/1/1 16/1/1
f 20/1/1 17/1/1 19/1/1
f 26/3/1 22/3/1 21/3/1
f 27/3/1 22/3/1 26/3/1
f 28/3/1 24/3/1 23/3/1
f 29/3/1 24/3/1 28/3/1
f 31/1/1 26/1/1 25/1/1
f 32/1/1 26/1/1 31/1/1
f 33/1/1 30/1/1 29/1/1
f 34/1/1 30/1/1 33/1/1
f 39/1/1 36/1/1 35/1/1
f 40/1/1 36/1/1 39/1/1
f 41/1/1 38/1/1 37/1/1
f 42/1/1 38/1/1 41/1/1
f 47/3/1 44/3/1 43/3/1
f 48/3/1 44/3/1 47/3/1
f 49/3/1 46/3/1 45/3/1
f 50/3/1 46/3/1 49/3/1
f 51/3/2 52/3/2 55/3/2
f 55/3/2 52/3/2 56/3/2
f 53/3/2 54/3/2 57/3/2
f 57/3/2 54/3/2 58/3/2
f 59/3/2 60/3/2 64/3/2
f 64/3/2 60/3/2 65/3/2
f 61/3/2 62/3/2 66/3/2
f 66/3/2 62/3/2 67/3/2
f 63/1/2 64/1/2 69/1/2
f 69/1/2 64/1/2 70/1/2
f 67/1/2 68/1/2 71/1/2
f 71/1/2 68/1/2 72/1/2
f 73/1/2 74/1/2 77/1/2
f 77/1/2 74/1/2 78/1/2
f 75/1/2 76/1/2 79/1/2
f 79/1/2 76/1/2 80/1/2
f 81/1/2 82/1/2 84/1/2
f 84/1/2 82/1/2 85/1/2
f 83/1/2 84/1/2 87/1/2
f 85/1/2 86/1/2 87/1/2
f 84/1/2 85/1/2 87/1/2
f 87/1/2 86/1/2 88/1/2
f 83/1/2 87/1/2 89/1/2
f 89/1/2 87/1/2 90/1/2
f 88/1/2 86/1/2 93/1/2
f 93/1/2 86/1/2 94/1/2
f 90/1/2 91/1/2 95/1/2
f 95/1/2 91/1/2 96/1/2
f 92/1/2 93/1/2 97/1/2
f 97/1/2 93/1/2 98/1/2
f 99/3/2 100/3/2 103/3/2
f 101/3/2 102/3/2 106/3/2
f 99/3/2 103/3/2 107/3/2
f 103/4/2 104/4/2 107/4/2
f 104/3/2 105/3/2 108/3/2
f 107/4/2 104/4/2 108/4/2
f 105/4/2 106/4/2 109/4/2
f 108/3/2 105/3/2 109/3/2
f 106/3/2 102/3/2 110/3/2
f 109/4/2 106/4/2 110/4/2
f 99/3/2 107/3/2 111/3/2
f 107/3/2 108/3/2 111/3/2
f 109/3/2 110/3/2 111/3/2
f 108/3/2 109/3/2 111/3/2
f 111/3/2 110/3/2 112/3/2
f 110/3/2 102/3/2 113/3/2
f 112/3/2 110/3/2 113/3/2
f 113/3/2 102/3/2 114/3/2
f 112/1/2 113/1/2 115/1/2
f 115/1/2 113/1/2 116/1/2
f 117/3/2 118/3/2 119/3/2
f 119/3/2 118/3/2 120/3/2
f 124/1/3 122/1/3 121/1/3
f 125/1/3 122/1/3 124/1/3
f 127/1/3 124/1/3 123/1/3
f 127/1/3 126/1/3 125/1/3
f 127/1/3 125/1/3 124/1/3
f 128/1/3 126/1/3 127/1/3
f 129/1/3 126/1/3 128/1/3
f 130/1/3 126/1/3 129/1/3
f 131/1/3 129/1/3 128/1/3
f 132/1/3 129/1/3 131/1/3
f 138/1/3 134/1/3 133/1/3
f 139/1/3 134/1/3 138/1/3
f 140/1/3 136/1/3 135/1/3
f 141/1/3 136/1/3 140/1/3
f 142/3/3 138/3/3 137/3/3
f 143/3/3 138/3/3 142/3/3
f 146/3/3 145/3/3 144/3/3
f 147/3/3 145/3/3 146/3/3
f 151/1/3 148/1/3 147/1/3
f 152/1/3 148/1/3 151/1/3
f 154/1/3 150/1/3 149/1/3
f 155/1/3 150/1/3 154/1/3
f 156/3/3 154/3/3 153/3/3
f 157/3/3 154/3/3 156/3/3
f 160/1/3 159/1/3 158/1/3
f 161/1/3 159/1/3 160/1/3
f 166/1/3 163/1/3 162/1/3
f 167/1/3 163/1/3 166/1/3
f 168/3/3 165/3/3 164/3/3
f 169/3/3 165/3/3 168/3/3
f 172/3/3 171/3/3 170/3/3
f 173/3/3 171/3/3 172/3/3
f 176/3/3 175/3/3 174/3/3
f 177/3/3 175/3/3 176/3/3
f 178/3/4 179/3/4 180/3/4
f 180/3/4 179/3/4 181/3/4
f 182/3/4 183/3/4 184/3/4
f 184/3/4 183/3/4 185/3/4
f 186/1/4 187/1/4 188/1/4
f 188/1/4 187/1/4 189/1/4
f 190/1/4 191/1/4 194/1/4
f 194/1/4 191/1/4 195/1/4
f 192/3/4 193/3/4 196/3/4
f 196/3/4 193/3/4 197/3/4
f 198/1/4 199/1/4 203/1/4
f 203/1/4 199/1/4 204/1/4
f 200/1/4 201/1/4 205/1/4
f 205/1/4 201/1/4 206/1/4
f 202/3/4 203/3/4 207/3/4
f 207/3/4 203/3/4 208/3/4
f 209/3/4 210/3/4 211/3/4
f 211/3/4 210/3/4 212/3/4
f 212/1/4 213/1/4 216/1/4
f 216/1/4 213/1/4 217/1/4
f 214/1/4 215/1/4 219/1/4
f 219/1/4 215/1/4 220/1/4
f 218/3/4 219/3/4 221/3/4
f 221/3/4 219/3/4 222/3/4
f 223/1/4 224/1/4 226/1/4
f 226/1/4 224/1/4 227/1/4
f 225/1/4 226/1/4 229/1/4
f 227/1/4 228/1/4 229/1/4
f 226/1/4 227/1/4 229/1/4
f 229/1/4 228/1/4 230/1/4
f 230/1/4 228/1/4 231/1/4
f 231/1/4 228/1/4 232/1/4
f 230/1/4 231/1/4 233/1/4
f 233/1/4 231/1/4 234/1/4
f 239/3/5 236/3/5 235/3/5
f 240/3/5 236/3/5 239/3/5
f 241/3/5 238/3/5 237/3/5
f 242/3/5 238/3/5 241/3/5
f 247/3/5 244/3/5 243/3/5
f 248/3/5 244/3/5 247/3/5
f 249/3/5 246/3/5 245/3/5
f 250/3/5 246/3/5 249/3/5
f 254/1/5 252/1/5 251/1/5
f 255/1/5 252/1/5 254/1/5
f 256/1/5 252/1/5 255/1/5
f 257/1/5 252/1/5 256/1/5
f 259/1/5 254/1/5 253/1/5
f 260/1/5 256/1/5 255/1/5
f 261/1/5 256/1/5 260/1/5
f 262/1/5 258/1/5 257/1/5
f 263/1/5 261/1/5 260/1/5
f 263/1/5 262/1/5 261/1/5
f 263/1/5 259/1/5 253/1/5
f 263/1/5 260/1/5 259/1/5
f 264/1/5 262/1/5 263/1/5
f 265/1/5 262/1/5 264/1/5
f 266/1/5 258/1/5 262/1/5
f 266/1/5 262/1/5 265/1/5
f 267/1/5 263/1/5 253/1/5
f 268/1/5 263/1/5 267/1/5
f 269/1/5 265/1/5 264/1/5
f 270/1/5 265/1/5 269/1/5
f 271/1/5 258/1/5 266/1/5
f 272/1/5 258/1/5 271/1/5
f 273/1/5 270/1/5 269/1/5
f 273/1/5 271/1/5 270/1/5
f 273/1/5 269/1/5 268/1/5
f 274/1/5 271/1/5 273/1/5
f 279/1/5 276/1/5 275/1/5
f 280/1/5 276/1/5 279/1/5
f 281/1/5 278/1/5 277/1/5
f 282/1/5 278/1/5 281/1/5
f 287/1/5 284/1/5 283/1/5
f 288/1/5 284/1/5 287/1/5
f 289/1/5 286/1/5 285/1/5
f 290/1/5 286/1/5 289/1/5
f 295/3/5 292/3/5 291/3/5
f 297/1/5 294/1/5 293/1/5
f 298/1/5 294/1/5 297/1/5
f 299/3/5 296/3/5 295/3/5
f 299/3/5 295/3/5 291/3/5
f 300/3/5 296/3/5 299/3/5
f 301/3/5 299/3/5 291/3/5
f 302/3/5 299/3/5 301/3/5
f 303/3/6 304/3/6 305/3/6
f 305/3/6 304/3/6 306/3/6
f 306/3/6 304/3/6 307/3/6
f 307/3/6 304/3/6 308/3/6
f 309/1/6 310/1/6 311/1/6
f 311/1/6 310/1/6 312/1/6
f 313/1/6 314/1/6 317/1/6
f 317/1/6 314/1/6 318/1/6
f 315/1/6 316/1/6 319/1/6
f 319/1/6 316/1/6 320/1/6
f 320/3/6 321/3/6 322/3/6
f 322/3/6 321/3/6 323/3/6
f 324/3/6 325/3/6 329/3/6
f 329/3/6 325/3/6 330/3/6
f 326/1/6 327/1/6 331/1/6
f 331/1/6 327/1/6 332/1/6
f 328/1/6 329/1/6 333/1/6
f 333/1/6 329/1/6 334/1/6
f 335/1/6 336/1/6 338/1/6
f 338/1/6 336/1/6 339/1/6
f 337/1/6 338/1/6 341/1/6
f 339/1/6 340/1/6 341/1/6
f 338/1/6 339/1/6 341/1/6
f 337/1/6 341/1/6 343/1/6
f 341/1/6 342/1/6 343/1/6
f 343/1/6 342/1/6 344/1/6
f 337/1/6 343/1/6 345/1/6
f 345/1/6 343/1/6 346/1/6
f 346/1/6 343/1/6 347/1/6
f 347/1/6 343/1/6 348/1/6
f 346/1/6 347/1/6 349/1/6
f 349/1/6 347/1/6 350/1/6
