# MagicaVoxel @ Ephtracy

# group
o 

# material
mtllib asphalt-middle.mtl
usemtl palette

# normals
vn 0 0 1
vn 0 0 -1
vn 1 0 0
vn -1 0 0
vn 0 -1 0
vn 0 1 0

# texcoords
vt 0.974609 0.5
vt 0.978516 0.5
vt 0.990234 0.5

# verts
v 0.8 -0.8 0.8
v -0.8 -0.8 0.8
v 0.8 0.8 0.8
v -0.8 0.8 0.8
v 0.8 -0.8 -0.8
v -0.8 -0.8 -0.8
v 0.8 0.8 -0.8
v -0.8 0.8 -0.8
v 0.8 -0.8 0.8
v 0.8 0.8 0.8
v 0.8 -0.8 -0.8
v 0.8 0.8 -0.8
v -0.8 -0.8 0.8
v -0.8 0.8 0.8
v -0.8 -0.8 -0.8
v -0.8 0.8 -0.8
v 0.8 -0.8 0.8
v 0.8 -0.8 -0.8
v -0.8 -0.8 0.8
v -0.8 -0.8 -0.8
v 0.8 0.8 0.8
v 0.8 0.8 -0.8
v 0.1 0.8 0.7
v 0.1 0.8 0.4
v 0.1 0.8 0.2
v 0.1 0.8 -0.1
v 0.1 0.8 -0.3
v 0.1 0.8 -0.6
v -0.1 0.8 0.7
v -0.1 0.8 0.4
v -0.1 0.8 0.2
v -0.1 0.8 -0.1
v -0.1 0.8 -0.3
v -0.1 0.8 -0.6
v -0.8 0.8 0.8
v -0.8 0.8 -0.8

# faces
f 3/3/1 2/3/1 1/3/1
f 4/3/1 2/3/1 3/3/1
f 5/3/2 6/3/2 7/3/2
f 7/3/2 6/3/2 8/3/2
f 11/3/3 10/3/3 9/3/3
f 12/3/3 10/3/3 11/3/3
f 13/3/4 14/3/4 15/3/4
f 15/3/4 14/3/4 16/3/4
f 19/3/5 18/3/5 17/3/5
f 20/3/5 18/3/5 19/3/5
f 21/3/6 22/3/6 23/3/6
f 23/3/6 22/3/6 24/3/6
f 24/3/6 22/3/6 25/3/6
f 25/3/6 22/3/6 26/3/6
f 26/3/6 22/3/6 27/3/6
f 27/3/6 22/3/6 28/3/6
f 21/3/6 23/3/6 29/3/6
f 23/1/6 24/1/6 29/1/6
f 24/3/6 25/3/6 30/3/6
f 29/1/6 24/1/6 30/1/6
f 25/1/6 26/1/6 31/1/6
f 30/3/6 25/3/6 31/3/6
f 26/3/6 27/3/6 32/3/6
f 31/1/6 26/1/6 32/1/6
f 27/1/6 28/1/6 33/1/6
f 32/3/6 27/3/6 33/3/6
f 28/3/6 22/3/6 34/3/6
f 33/1/6 28/1/6 34/1/6
f 32/3/6 33/3/6 35/3/6
f 31/3/6 32/3/6 35/3/6
f 33/3/6 34/3/6 35/3/6
f 30/3/6 31/3/6 35/3/6
f 29/3/6 30/3/6 35/3/6
f 21/3/6 29/3/6 35/3/6
f 34/3/6 22/3/6 36/3/6
f 35/3/6 34/3/6 36/3/6
