# MagicaVoxel @ Ephtracy

# group
o 

# material
mtllib farmer.mtl
usemtl palette

# normals
vn -1 0 0
vn 1 0 0
vn 0 0 1
vn 0 0 -1
vn 0 -1 0
vn 0 1 0

# texcoords
vt 0.0371094 0.5
vt 0.0605469 0.5
vt 0.205078 0.5
vt 0.396484 0.5
vt 0.533203 0.5
vt 0.537109 0.5
vt 0.810547 0.5
vt 0.978516 0.5
vt 0.982422 0.5
vt 0.986328 0.5
vt 0.990234 0.5
vt 0.994141 0.5

# verts
v -0.4 1.2 0.1
v -0.4 1.2 -0.2
v -0.4 1.3 0.1
v -0.4 1.3 -0.2
v -0.3 0 0.4
v -0.3 0 0.3
v -0.3 0.7 0.4
v -0.3 0.7 0.3
v -0.3 0.7 0.1
v -0.3 0.7 -0.1
v -0.3 0.8 0.4
v -0.3 0.8 0.3
v -0.3 0.8 0.1
v -0.3 0.8 -0.1
v -0.3 1.2 0.2
v -0.3 1.2 0.1
v -0.3 1.2 -0.2
v -0.3 1.2 -0.3
v -0.3 1.3 0.2
v -0.3 1.3 0.1
v -0.3 1.3 -0.2
v -0.3 1.3 -0.3
v -0.3 1.4 0.6
v -0.3 1.4 0.5
v -0.3 1.5 0.5
v -0.3 1.5 0.4
v -0.3 1.6 0.6
v -0.3 1.6 0.3
v -0.2 0 5.96046e-008
v -0.2 0 -0.1
v -0.2 0.1 5.96046e-008
v -0.2 0.1 -0.1
v -0.2 0.3 0.1
v -0.2 0.3 5.96046e-008
v -0.2 0.3 -0.1
v -0.2 0.3 -0.2
v -0.2 0.5 5.96046e-008
v -0.2 0.5 -0.1
v -0.2 0.7 0.1
v -0.2 0.7 5.96046e-008
v -0.2 0.7 -0.1
v -0.2 0.8 0.2
v -0.2 0.8 0.1
v -0.2 0.8 5.96046e-008
v -0.2 0.8 -0.1
v -0.2 0.9 0.2
v -0.2 0.9 0.1
v -0.2 0.9 5.96046e-008
v -0.2 0.9 -0.1
v -0.2 0.9 -0.2
v -0.2 1 0.1
v -0.2 1 5.96046e-008
v -0.2 1.1 0.1
v -0.2 1.1 5.96046e-008
v -0.2 1.2 0.3
v -0.2 1.2 0.2
v -0.2 1.2 0.1
v -0.2 1.2 -0.2
v -0.2 1.2 -0.3
v -0.2 1.2 -0.4
v -0.2 1.3 0.3
v -0.2 1.3 0.2
v -0.2 1.3 0.1
v -0.2 1.3 -0.2
v -0.2 1.3 -0.3
v -0.2 1.3 -0.4
v -0.2 1.4 0.1
v -0.2 1.4 -0.2
v -0.2 1.5 0.1
v -0.2 1.5 5.96046e-008
v -0.2 1.5 -0.1
v -0.2 1.5 -0.2
v -0.2 1.6 5.96046e-008
v -0.2 1.6 -0.1
v -0.1 0.9 0.2
v -0.1 0.9 0.1
v -0.1 1 0.2
v -0.1 1 0.1
v -0.1 1.5 0.1
v -0.1 1.5 5.96046e-008
v -0.1 1.5 -0.1
v -0.1 1.5 -0.2
v -0.1 1.6 0.1
v -0.1 1.6 5.96046e-008
v -0.1 1.6 -0.1
v -0.1 1.6 -0.2
v 0.1 0 5.96046e-008
v 0.1 0 -0.1
v 0.1 0.1 5.96046e-008
v 0.1 0.1 -0.1
v 0.1 0.3 5.96046e-008
v 0.1 0.3 -0.1
v -0.2 0 0.4
v -0.2 0 0.3
v -0.2 0.7 0.4
v -0.2 0.7 0.3
v -0.2 0.7 0.2
v -0.2 0.8 0.4
v -0.2 0.8 0.3
v -0.2 0.8 0.2
v -0.2 1.2 0.3
v -0.2 1.3 0.3
v -0.2 1.4 0.6
v -0.2 1.4 0.5
v -0.2 1.5 0.5
v -0.2 1.5 0.4
v -0.2 1.6 0.6
v -0.2 1.6 0.3
v -0.1 0 5.96046e-008
v -0.1 0 -0.1
v -0.1 0.1 5.96046e-008
v -0.1 0.1 -0.1
v -0.1 0.3 5.96046e-008
v -0.1 0.3 -0.1
v 0.1 0.9 0.2
v 0.1 0.9 0.1
v 0.1 1 0.2
v 0.1 1 0.1
v 0.1 1.5 0.1
v 0.1 1.5 5.96046e-008
v 0.1 1.5 -0.1
v 0.1 1.5 -0.2
v 0.1 1.6 0.1
v 0.1 1.6 5.96046e-008
v 0.1 1.6 -0.1
v 0.1 1.6 -0.2
v 0.2 0 5.96046e-008
v 0.2 0 -0.1
v 0.2 0.1 5.96046e-008
v 0.2 0.1 -0.1
v 0.2 0.3 0.1
v 0.2 0.3 5.96046e-008
v 0.2 0.3 -0.1
v 0.2 0.3 -0.2
v 0.2 0.4 5.96046e-008
v 0.2 0.4 -0.1
v 0.2 0.7 0.2
v 0.2 0.7 0.1
v 0.2 0.7 5.96046e-008
v 0.2 0.7 -0.1
v 0.2 0.8 5.96046e-008
v 0.2 0.8 -0.1
v 0.2 0.9 0.2
v 0.2 0.9 0.1
v 0.2 0.9 5.96046e-008
v 0.2 0.9 -0.1
v 0.2 0.9 -0.2
v 0.2 1 0.1
v 0.2 1 5.96046e-008
v 0.2 1.1 0.1
v 0.2 1.1 5.96046e-008
v 0.2 1.2 0.3
v 0.2 1.2 0.2
v 0.2 1.2 0.1
v 0.2 1.2 -0.2
v 0.2 1.2 -0.3
v 0.2 1.2 -0.4
v 0.2 1.3 0.3
v 0.2 1.3 0.2
v 0.2 1.3 0.1
v 0.2 1.3 -0.2
v 0.2 1.3 -0.3
v 0.2 1.3 -0.4
v 0.2 1.4 0.1
v 0.2 1.4 -0.2
v 0.2 1.5 0.1
v 0.2 1.5 5.96046e-008
v 0.2 1.5 -0.1
v 0.2 1.5 -0.2
v 0.2 1.6 5.96046e-008
v 0.2 1.6 -0.1
v 0.3 0.4 5.96046e-008
v 0.3 0.4 -0.1
v 0.3 0.7 5.96046e-008
v 0.3 0.7 -0.1
v 0.3 0.8 5.96046e-008
v 0.3 0.8 -0.1
v 0.3 1.2 0.2
v 0.3 1.2 0.1
v 0.3 1.2 -0.2
v 0.3 1.2 -0.3
v 0.3 1.3 0.2
v 0.3 1.3 0.1
v 0.3 1.3 -0.2
v 0.3 1.3 -0.3
v 0.4 1.2 0.1
v 0.4 1.2 -0.2
v 0.4 1.3 0.1
v 0.4 1.3 -0.2
v -0.3 1.4 0.6
v -0.3 1.6 0.6
v -0.2 1.4 0.6
v -0.2 1.6 0.6
v -0.3 0 0.4
v -0.3 0.7 0.4
v -0.3 0.8 0.4
v -0.3 1.5 0.4
v -0.2 0 0.4
v -0.2 0.7 0.4
v -0.2 0.8 0.4
v -0.2 1.5 0.4
v -0.2 1.2 0.3
v -0.2 1.3 0.3
v 0.2 1.2 0.3
v 0.2 1.3 0.3
v -0.3 1.2 0.2
v -0.3 1.3 0.2
v -0.2 0.7 0.2
v -0.2 0.8 0.2
v -0.2 0.9 0.2
v -0.2 1.2 0.2
v -0.2 1.3 0.2
v -0.1 0.9 0.2
v -0.1 1 0.2
v 0.1 0.9 0.2
v 0.1 1 0.2
v 0.2 0.7 0.2
v 0.2 0.9 0.2
v 0.2 1.2 0.2
v 0.2 1.3 0.2
v 0.3 1.2 0.2
v 0.3 1.3 0.2
v -0.4 1.2 0.1
v -0.4 1.3 0.1
v -0.3 1.2 0.1
v -0.3 1.3 0.1
v -0.2 0.3 0.1
v -0.2 0.7 0.1
v -0.2 0.9 0.1
v -0.2 1 0.1
v -0.2 1.1 0.1
v -0.2 1.2 0.1
v -0.2 1.3 0.1
v -0.2 1.4 0.1
v -0.2 1.5 0.1
v -0.1 0.5 0.1
v -0.1 0.7 0.1
v -0.1 0.9 0.1
v -0.1 1 0.1
v -0.1 1.1 0.1
v -0.1 1.5 0.1
v -0.1 1.6 0.1
v 0.1 0.5 0.1
v 0.1 0.7 0.1
v 0.1 0.9 0.1
v 0.1 1 0.1
v 0.1 1.1 0.1
v 0.1 1.5 0.1
v 0.1 1.6 0.1
v 0.2 0.3 0.1
v 0.2 0.7 0.1
v 0.2 0.9 0.1
v 0.2 1 0.1
v 0.2 1.1 0.1
v 0.2 1.2 0.1
v 0.2 1.3 0.1
v 0.2 1.4 0.1
v 0.2 1.5 0.1
v 0.3 1.2 0.1
v 0.3 1.3 0.1
v 0.4 1.2 0.1
v 0.4 1.3 0.1
v -0.2 0 5.96046e-008
v -0.2 0.1 5.96046e-008
v -0.2 0.3 5.96046e-008
v -0.2 1.5 5.96046e-008
v -0.2 1.6 5.96046e-008
v -0.1 0 5.96046e-008
v -0.1 0.1 5.96046e-008
v -0.1 0.3 5.96046e-008
v -0.1 1.5 5.96046e-008
v -0.1 1.6 5.96046e-008
v 0.1 0 5.96046e-008
v 0.1 0.1 5.96046e-008
v 0.1 0.3 5.96046e-008
v 0.1 1.5 5.96046e-008
v 0.1 1.6 5.96046e-008
v 0.2 0 5.96046e-008
v 0.2 0.1 5.96046e-008
v 0.2 0.3 5.96046e-008
v 0.2 0.4 5.96046e-008
v 0.2 0.7 5.96046e-008
v 0.2 0.8 5.96046e-008
v 0.2 1.5 5.96046e-008
v 0.2 1.6 5.96046e-008
v 0.3 0.4 5.96046e-008
v 0.3 0.7 5.96046e-008
v 0.3 0.8 5.96046e-008
v -0.3 1.4 0.5
v -0.3 1.5 0.5
v -0.2 1.4 0.5
v -0.2 1.5 0.5
v -0.3 0 0.3
v -0.3 0.7 0.3
v -0.3 0.8 0.3
v -0.3 1.6 0.3
v -0.2 0 0.3
v -0.2 0.7 0.3
v -0.2 0.8 0.3
v -0.2 1.2 0.3
v -0.2 1.3 0.3
v -0.2 1.6 0.3
v -0.3 0.7 -0.1
v -0.3 0.8 -0.1
v -0.2 0 -0.1
v -0.2 0.1 -0.1
v -0.2 0.3 -0.1
v -0.2 0.7 -0.1
v -0.2 0.8 -0.1
v -0.2 1.5 -0.1
v -0.2 1.6 -0.1
v -0.1 0 -0.1
v -0.1 0.1 -0.1
v -0.1 0.3 -0.1
v -0.1 1.5 -0.1
v -0.1 1.6 -0.1
v 0.1 0 -0.1
v 0.1 0.1 -0.1
v 0.1 0.3 -0.1
v 0.1 1.5 -0.1
v 0.1 1.6 -0.1
v 0.2 0 -0.1
v 0.2 0.1 -0.1
v 0.2 0.3 -0.1
v 0.2 0.4 -0.1
v 0.2 0.7 -0.1
v 0.2 0.8 -0.1
v 0.2 1.5 -0.1
v 0.2 1.6 -0.1
v 0.3 0.4 -0.1
v 0.3 0.7 -0.1
v 0.3 0.8 -0.1
v -0.4 1.2 -0.2
v -0.4 1.3 -0.2
v -0.3 1.2 -0.2
v -0.3 1.3 -0.2
v -0.2 0.3 -0.2
v -0.2 0.9 -0.2
v -0.2 1.2 -0.2
v -0.2 1.3 -0.2
v -0.2 1.4 -0.2
v -0.2 1.5 -0.2
v -0.1 0.5 -0.2
v -0.1 0.9 -0.2
v -0.1 1.5 -0.2
v -0.1 1.6 -0.2
v 0.1 0.5 -0.2
v 0.1 0.9 -0.2
v 0.1 1.5 -0.2
v 0.1 1.6 -0.2
v 0.2 0.3 -0.2
v 0.2 0.9 -0.2
v 0.2 1.2 -0.2
v 0.2 1.3 -0.2
v 0.2 1.4 -0.2
v 0.2 1.5 -0.2
v 0.3 1.2 -0.2
v 0.3 1.3 -0.2
v 0.4 1.2 -0.2
v 0.4 1.3 -0.2
v -0.3 1.2 -0.3
v -0.3 1.3 -0.3
v -0.2 1.2 -0.3
v -0.2 1.3 -0.3
v 0.2 1.2 -0.3
v 0.2 1.3 -0.3
v 0.3 1.2 -0.3
v 0.3 1.3 -0.3
v -0.2 1.2 -0.4
v -0.2 1.3 -0.4
v 0.2 1.2 -0.4
v 0.2 1.3 -0.4
v -0.3 0 0.4
v -0.2 0 0.4
v -0.3 0 0.3
v -0.2 0 0.3
v -0.2 0 5.96046e-008
v -0.1 0 5.96046e-008
v 0.1 0 5.96046e-008
v 0.2 0 5.96046e-008
v -0.2 0 -0.1
v -0.1 0 -0.1
v 0.1 0 -0.1
v 0.2 0 -0.1
v -0.2 0.3 0.1
v 0.2 0.3 0.1
v -0.2 0.3 5.96046e-008
v -0.1 0.3 5.96046e-008
v 0.1 0.3 5.96046e-008
v 0.2 0.3 5.96046e-008
v -0.2 0.3 -0.1
v -0.1 0.3 -0.1
v 0.1 0.3 -0.1
v 0.2 0.3 -0.1
v -0.2 0.3 -0.2
v 0.2 0.3 -0.2
v 0.2 0.4 5.96046e-008
v 0.3 0.4 5.96046e-008
v 0.2 0.4 -0.1
v 0.3 0.4 -0.1
v -0.3 0.7 0.3
v -0.2 0.7 0.3
v -0.2 0.7 0.2
v 0.2 0.7 0.2
v -0.3 0.7 0.1
v -0.2 0.7 0.1
v -0.1 0.7 0.1
v 0.1 0.7 0.1
v 0.2 0.7 0.1
v -0.2 0.7 5.96046e-008
v -0.3 0.7 -0.1
v -0.2 0.7 -0.1
v -0.2 1.2 0.3
v 0.2 1.2 0.3
v -0.3 1.2 0.2
v -0.2 1.2 0.2
v 0.2 1.2 0.2
v 0.3 1.2 0.2
v -0.4 1.2 0.1
v -0.3 1.2 0.1
v -0.2 1.2 0.1
v 0.2 1.2 0.1
v 0.3 1.2 0.1
v 0.4 1.2 0.1
v -0.4 1.2 -0.2
v -0.3 1.2 -0.2
v -0.2 1.2 -0.2
v 0.2 1.2 -0.2
v 0.3 1.2 -0.2
v 0.4 1.2 -0.2
v -0.3 1.2 -0.3
v -0.2 1.2 -0.3
v 0.2 1.2 -0.3
v 0.3 1.2 -0.3
v -0.2 1.2 -0.4
v 0.2 1.2 -0.4
v -0.3 1.4 0.6
v -0.2 1.4 0.6
v -0.3 1.4 0.5
v -0.2 1.4 0.5
v -0.3 1.5 0.5
v -0.2 1.5 0.5
v -0.3 1.5 0.4
v -0.2 1.5 0.4
v -0.3 0.8 0.3
v -0.2 0.8 0.3
v -0.2 0.8 0.2
v -0.3 0.8 0.1
v -0.2 0.8 0.1
v -0.2 0.8 5.96046e-008
v 0.2 0.8 5.96046e-008
v 0.3 0.8 5.96046e-008
v -0.3 0.8 -0.1
v -0.2 0.8 -0.1
v 0.2 0.8 -0.1
v 0.3 0.8 -0.1
v -0.2 0.9 0.2
v -0.1 0.9 0.2
v 0.1 0.9 0.2
v 0.2 0.9 0.2
v -0.2 0.9 0.1
v -0.1 0.9 0.1
v 0.1 0.9 0.1
v 0.2 0.9 0.1
v -0.1 1 0.2
v 0.1 1 0.2
v -0.1 1 0.1
v 0.1 1 0.1
v -0.2 1.3 0.3
v 0.2 1.3 0.3
v -0.3 1.3 0.2
v -0.2 1.3 0.2
v 0.2 1.3 0.2
v 0.3 1.3 0.2
v -0.4 1.3 0.1
v -0.3 1.3 0.1
v -0.2 1.3 0.1
v 0.2 1.3 0.1
v 0.3 1.3 0.1
v 0.4 1.3 0.1
v -0.4 1.3 -0.2
v -0.3 1.3 -0.2
v -0.2 1.3 -0.2
v 0.2 1.3 -0.2
v 0.3 1.3 -0.2
v 0.4 1.3 -0.2
v -0.3 1.3 -0.3
v -0.2 1.3 -0.3
v 0.2 1.3 -0.3
v 0.3 1.3 -0.3
v -0.2 1.3 -0.4
v 0.2 1.3 -0.4
v -0.2 1.5 0.1
v -0.1 1.5 0.1
v 0.1 1.5 0.1
v 0.2 1.5 0.1
v -0.2 1.5 5.96046e-008
v -0.1 1.5 5.96046e-008
v 0.1 1.5 5.96046e-008
v 0.2 1.5 5.96046e-008
v -0.2 1.5 -0.1
v -0.1 1.5 -0.1
v 0.1 1.5 -0.1
v 0.2 1.5 -0.1
v -0.2 1.5 -0.2
v -0.1 1.5 -0.2
v 0.1 1.5 -0.2
v 0.2 1.5 -0.2
v -0.3 1.6 0.6
v -0.2 1.6 0.6
v -0.3 1.6 0.3
v -0.2 1.6 0.3
v -0.1 1.6 0.1
v 0.1 1.6 0.1
v -0.2 1.6 5.96046e-008
v -0.1 1.6 5.96046e-008
v 0.1 1.6 5.96046e-008
v 0.2 1.6 5.96046e-008
v -0.2 1.6 -0.1
v -0.1 1.6 -0.1
v 0.1 1.6 -0.1
v 0.2 1.6 -0.1
v -0.1 1.6 -0.2
v 0.1 1.6 -0.2

# faces
f 3/1/1 2/1/1 1/1/1
f 4/1/1 2/1/1 3/1/1
f 7/5/1 6/5/1 5/5/1
f 8/5/1 6/5/1 7/5/1
f 11/2/1 8/2/1 7/2/1
f 11/2/1 9/2/1 8/2/1
f 12/2/1 9/2/1 11/2/1
f 13/12/1 10/12/1 9/12/1
f 13/2/1 9/2/1 12/2/1
f 14/12/1 10/12/1 13/12/1
f 19/1/1 16/1/1 15/1/1
f 20/1/1 16/1/1 19/1/1
f 21/1/1 18/1/1 17/1/1
f 22/1/1 18/1/1 21/1/1
f 25/5/1 24/5/1 23/5/1
f 26/5/1 12/5/1 11/5/1
f 27/5/1 25/5/1 23/5/1
f 27/5/1 26/5/1 25/5/1
f 28/5/1 12/5/1 26/5/1
f 28/5/1 26/5/1 27/5/1
f 31/2/1 30/2/1 29/2/1
f 32/2/1 30/2/1 31/2/1
f 34/7/1 32/7/1 31/7/1
f 35/7/1 32/7/1 34/7/1
f 37/7/1 35/7/1 34/7/1
f 37/7/1 36/7/1 35/7/1
f 37/7/1 34/7/1 33/7/1
f 38/7/1 36/7/1 37/7/1
f 39/7/1 37/7/1 33/7/1
f 40/12/1 38/12/1 37/12/1
f 40/7/1 37/7/1 39/7/1
f 41/7/1 36/7/1 38/7/1
f 41/12/1 38/12/1 40/12/1
f 45/7/1 36/7/1 41/7/1
f 46/9/1 43/9/1 42/9/1
f 47/7/1 44/7/1 43/7/1
f 47/9/1 43/9/1 46/9/1
f 48/12/1 45/12/1 44/12/1
f 48/7/1 44/7/1 47/7/1
f 49/7/1 36/7/1 45/7/1
f 49/12/1 45/12/1 48/12/1
f 50/7/1 36/7/1 49/7/1
f 51/2/1 48/2/1 47/2/1
f 51/2/1 50/2/1 49/2/1
f 51/2/1 49/2/1 48/2/1
f 52/2/1 50/2/1 51/2/1
f 53/12/1 52/12/1 51/12/1
f 54/2/1 50/2/1 52/2/1
f 54/12/1 52/12/1 53/12/1
f 57/2/1 54/2/1 53/2/1
f 58/2/1 50/2/1 54/2/1
f 58/2/1 54/2/1 57/2/1
f 61/1/1 56/1/1 55/1/1
f 62/1/1 56/1/1 61/1/1
f 65/1/1 60/1/1 59/1/1
f 66/1/1 60/1/1 65/1/1
f 67/10/1 64/10/1 63/10/1
f 68/10/1 64/10/1 67/10/1
f 69/1/1 68/1/1 67/1/1
f 70/1/1 68/1/1 69/1/1
f 71/1/1 68/1/1 70/1/1
f 72/1/1 68/1/1 71/1/1
f 73/1/1 71/1/1 70/1/1
f 74/1/1 71/1/1 73/1/1
f 77/9/1 76/9/1 75/9/1
f 78/9/1 76/9/1 77/9/1
f 83/1/1 80/1/1 79/1/1
f 84/1/1 80/1/1 83/1/1
f 85/1/1 82/1/1 81/1/1
f 86/1/1 82/1/1 85/1/1
f 89/2/1 88/2/1 87/2/1
f 90/2/1 88/2/1 89/2/1
f 91/7/1 90/7/1 89/7/1
f 92/7/1 90/7/1 91/7/1
f 93/5/2 94/5/2 95/5/2
f 95/5/2 94/5/2 96/5/2
f 95/2/2 96/2/2 98/2/2
f 96/2/2 97/2/2 98/2/2
f 98/2/2 97/2/2 99/2/2
f 99/2/2 97/2/2 100/2/2
f 98/5/2 99/5/2 101/5/2
f 98/5/2 101/5/2 102/5/2
f 103/5/2 104/5/2 105/5/2
f 98/5/2 102/5/2 106/5/2
f 103/5/2 105/5/2 107/5/2
f 105/5/2 106/5/2 107/5/2
f 106/5/2 102/5/2 108/5/2
f 107/5/2 106/5/2 108/5/2
f 109/2/2 110/2/2 111/2/2
f 111/2/2 110/2/2 112/2/2
f 111/7/2 112/7/2 113/7/2
f 113/7/2 112/7/2 114/7/2
f 115/9/2 116/9/2 117/9/2
f 117/9/2 116/9/2 118/9/2
f 119/1/2 120/1/2 123/1/2
f 123/1/2 120/1/2 124/1/2
f 121/1/2 122/1/2 125/1/2
f 125/1/2 122/1/2 126/1/2
f 127/2/2 128/2/2 129/2/2
f 129/2/2 128/2/2 130/2/2
f 129/7/2 130/7/2 132/7/2
f 132/7/2 130/7/2 133/7/2
f 132/7/2 133/7/2 135/7/2
f 133/7/2 134/7/2 135/7/2
f 131/7/2 132/7/2 135/7/2
f 135/7/2 134/7/2 136/7/2
f 131/7/2 135/7/2 138/7/2
f 138/7/2 135/7/2 139/7/2
f 136/7/2 134/7/2 140/7/2
f 138/7/2 139/7/2 141/7/2
f 140/7/2 134/7/2 142/7/2
f 137/9/2 138/9/2 143/9/2
f 138/7/2 141/7/2 144/7/2
f 143/9/2 138/9/2 144/9/2
f 141/12/2 142/12/2 145/12/2
f 144/7/2 141/7/2 145/7/2
f 142/7/2 134/7/2 146/7/2
f 145/12/2 142/12/2 146/12/2
f 146/7/2 134/7/2 147/7/2
f 144/2/2 145/2/2 148/2/2
f 146/2/2 147/2/2 148/2/2
f 145/2/2 146/2/2 148/2/2
f 148/2/2 147/2/2 149/2/2
f 148/12/2 149/12/2 150/12/2
f 149/2/2 147/2/2 151/2/2
f 150/12/2 149/12/2 151/12/2
f 150/2/2 151/2/2 154/2/2
f 151/2/2 147/2/2 155/2/2
f 154/2/2 151/2/2 155/2/2
f 152/1/2 153/1/2 158/1/2
f 158/1/2 153/1/2 159/1/2
f 156/1/2 157/1/2 162/1/2
f 162/1/2 157/1/2 163/1/2
f 160/10/2 161/10/2 164/10/2
f 164/10/2 161/10/2 165/10/2
f 164/1/2 165/1/2 166/1/2
f 166/1/2 165/1/2 167/1/2
f 167/1/2 165/1/2 168/1/2
f 168/1/2 165/1/2 169/1/2
f 167/1/2 168/1/2 170/1/2
f 170/1/2 168/1/2 171/1/2
f 172/2/2 173/2/2 174/2/2
f 174/2/2 173/2/2 175/2/2
f 174/12/2 175/12/2 176/12/2
f 176/12/2 175/12/2 177/12/2
f 178/1/2 179/1/2 182/1/2
f 182/1/2 179/1/2 183/1/2
f 180/1/2 181/1/2 184/1/2
f 184/1/2 181/1/2 185/1/2
f 186/1/2 187/1/2 188/1/2
f 188/1/2 187/1/2 189/1/2
f 192/5/3 191/5/3 190/5/3
f 193/5/3 191/5/3 192/5/3
f 198/5/3 195/5/3 194/5/3
f 199/2/3 196/2/3 195/2/3
f 199/5/3 195/5/3 198/5/3
f 200/5/3 197/5/3 196/5/3
f 200/2/3 196/2/3 199/2/3
f 201/5/3 197/5/3 200/5/3
f 204/1/3 203/1/3 202/1/3
f 205/1/3 203/1/3 204/1/3
f 211/1/3 207/1/3 206/1/3
f 212/1/3 207/1/3 211/1/3
f 213/9/3 210/9/3 209/9/3
f 213/9/3 209/9/3 208/9/3
f 215/9/3 213/9/3 208/9/3
f 215/9/3 214/9/3 213/9/3
f 216/9/3 214/9/3 215/9/3
f 217/9/3 215/9/3 208/9/3
f 218/9/3 215/9/3 217/9/3
f 221/1/3 220/1/3 219/1/3
f 222/1/3 220/1/3 221/1/3
f 225/1/3 224/1/3 223/1/3
f 226/1/3 224/1/3 225/1/3
f 236/7/3 228/7/3 227/7/3
f 237/7/3 228/7/3 236/7/3
f 238/2/3 230/2/3 229/2/3
f 239/12/3 231/12/3 230/12/3
f 239/2/3 230/2/3 238/2/3
f 240/2/3 232/2/3 231/2/3
f 240/12/3 231/12/3 239/12/3
f 241/1/3 235/1/3 234/1/3
f 243/12/3 237/12/3 236/12/3
f 243/7/3 236/7/3 227/7/3
f 244/12/3 237/12/3 243/12/3
f 246/2/3 240/2/3 239/2/3
f 247/2/3 232/2/3 240/2/3
f 247/2/3 240/2/3 246/2/3
f 248/1/3 242/1/3 241/1/3
f 248/1/3 241/1/3 234/1/3
f 249/1/3 242/1/3 248/1/3
f 250/7/3 244/7/3 243/7/3
f 250/7/3 243/7/3 227/7/3
f 251/7/3 244/7/3 250/7/3
f 252/2/3 246/2/3 245/2/3
f 253/12/3 247/12/3 246/12/3
f 253/2/3 246/2/3 252/2/3
f 254/2/3 232/2/3 247/2/3
f 254/12/3 247/12/3 253/12/3
f 255/2/3 232/2/3 254/2/3
f 256/10/3 234/10/3 233/10/3
f 257/1/3 248/1/3 234/1/3
f 257/10/3 234/10/3 256/10/3
f 258/1/3 248/1/3 257/1/3
f 261/1/3 260/1/3 259/1/3
f 262/1/3 260/1/3 261/1/3
f 268/2/3 264/2/3 263/2/3
f 269/7/3 265/7/3 264/7/3
f 269/2/3 264/2/3 268/2/3
f 270/7/3 265/7/3 269/7/3
f 271/1/3 267/1/3 266/1/3
f 272/1/3 267/1/3 271/1/3
f 278/2/3 274/2/3 273/2/3
f 279/7/3 275/7/3 274/7/3
f 279/2/3 274/2/3 278/2/3
f 280/7/3 275/7/3 279/7/3
f 284/1/3 277/1/3 276/1/3
f 285/1/3 277/1/3 284/1/3
f 286/2/3 282/2/3 281/2/3
f 287/12/3 283/12/3 282/12/3
f 287/2/3 282/2/3 286/2/3
f 288/12/3 283/12/3 287/12/3
f 289/5/4 290/5/4 291/5/4
f 291/5/4 290/5/4 292/5/4
f 293/5/4 294/5/4 297/5/4
f 297/5/4 294/5/4 298/5/4
f 295/5/4 296/5/4 299/5/4
f 299/5/4 296/5/4 300/5/4
f 300/5/4 296/5/4 301/5/4
f 301/5/4 296/5/4 302/5/4
f 303/12/4 304/12/4 308/12/4
f 308/12/4 304/12/4 309/12/4
f 305/2/4 306/2/4 312/2/4
f 306/7/4 307/7/4 313/7/4
f 312/2/4 306/2/4 313/2/4
f 313/7/4 307/7/4 314/7/4
f 310/1/4 311/1/4 315/1/4
f 315/1/4 311/1/4 316/1/4
f 317/2/4 318/2/4 322/2/4
f 318/7/4 319/7/4 323/7/4
f 322/2/4 318/2/4 323/2/4
f 323/7/4 319/7/4 324/7/4
f 320/1/4 321/1/4 328/1/4
f 328/1/4 321/1/4 329/1/4
f 325/2/4 326/2/4 330/2/4
f 326/12/4 327/12/4 331/12/4
f 330/2/4 326/2/4 331/2/4
f 331/12/4 327/12/4 332/12/4
f 333/1/4 334/1/4 335/1/4
f 335/1/4 334/1/4 336/1/4
f 337/7/4 338/7/4 343/7/4
f 338/2/4 339/2/4 344/2/4
f 343/7/4 338/7/4 344/7/4
f 341/1/4 342/1/4 345/1/4
f 337/7/4 343/7/4 347/7/4
f 343/12/4 344/12/4 347/12/4
f 344/2/4 339/2/4 348/2/4
f 347/12/4 344/12/4 348/12/4
f 345/1/4 346/1/4 349/1/4
f 341/1/4 345/1/4 349/1/4
f 349/1/4 346/1/4 350/1/4
f 337/7/4 347/7/4 351/7/4
f 347/7/4 348/7/4 351/7/4
f 348/2/4 339/2/4 352/2/4
f 351/7/4 348/7/4 352/7/4
f 352/2/4 339/2/4 353/2/4
f 340/10/4 341/10/4 354/10/4
f 341/1/4 349/1/4 355/1/4
f 354/10/4 341/10/4 355/10/4
f 355/1/4 349/1/4 356/1/4
f 357/1/4 358/1/4 359/1/4
f 359/1/4 358/1/4 360/1/4
f 361/1/4 362/1/4 363/1/4
f 363/1/4 362/1/4 364/1/4
f 365/1/4 366/1/4 367/1/4
f 367/1/4 366/1/4 368/1/4
f 369/1/4 370/1/4 371/1/4
f 371/1/4 370/1/4 372/1/4
f 375/5/5 374/5/5 373/5/5
f 376/5/5 374/5/5 375/5/5
f 381/2/5 378/2/5 377/2/5
f 382/2/5 378/2/5 381/2/5
f 383/2/5 380/2/5 379/2/5
f 384/2/5 380/2/5 383/2/5
f 387/7/5 386/7/5 385/7/5
f 388/7/5 386/7/5 387/7/5
f 389/7/5 386/7/5 388/7/5
f 390/7/5 386/7/5 389/7/5
f 392/7/5 389/7/5 388/7/5
f 393/7/5 389/7/5 392/7/5
f 395/7/5 392/7/5 391/7/5
f 395/7/5 394/7/5 393/7/5
f 395/7/5 393/7/5 392/7/5
f 396/7/5 394/7/5 395/7/5
f 399/2/5 398/2/5 397/2/5
f 400/2/5 398/2/5 399/2/5
f 403/2/5 402/2/5 401/2/5
f 405/2/5 403/2/5 401/2/5
f 406/9/5 404/9/5 403/9/5
f 406/2/5 403/2/5 405/2/5
f 407/9/5 404/9/5 406/9/5
f 408/9/5 404/9/5 407/9/5
f 409/9/5 404/9/5 408/9/5
f 410/12/5 406/12/5 405/12/5
f 411/12/5 410/12/5 405/12/5
f 412/12/5 410/12/5 411/12/5
f 416/1/5 414/1/5 413/1/5
f 417/1/5 414/1/5 416/1/5
f 420/1/5 416/1/5 415/1/5
f 420/1/5 418/1/5 417/1/5
f 420/1/5 417/1/5 416/1/5
f 421/1/5 418/1/5 420/1/5
f 422/1/5 418/1/5 421/1/5
f 423/1/5 418/1/5 422/1/5
f 425/1/5 420/1/5 419/1/5
f 425/1/5 421/1/5 420/1/5
f 426/1/5 421/1/5 425/1/5
f 427/1/5 421/1/5 426/1/5
f 428/1/5 424/1/5 423/1/5
f 428/1/5 423/1/5 422/1/5
f 429/1/5 424/1/5 428/1/5
f 430/1/5 424/1/5 429/1/5
f 431/1/5 427/1/5 426/1/5
f 431/1/5 429/1/5 428/1/5
f 431/1/5 428/1/5 427/1/5
f 432/1/5 429/1/5 431/1/5
f 433/1/5 429/1/5 432/1/5
f 434/1/5 429/1/5 433/1/5
f 435/1/5 433/1/5 432/1/5
f 436/1/5 433/1/5 435/1/5
f 439/5/5 438/5/5 437/5/5
f 440/5/5 438/5/5 439/5/5
f 443/5/5 442/5/5 441/5/5
f 444/5/5 442/5/5 443/5/5
f 445/2/6 446/2/6 447/2/6
f 445/2/6 447/2/6 448/2/6
f 448/2/6 447/2/6 449/2/6
f 448/12/6 449/12/6 450/12/6
f 448/12/6 450/12/6 453/12/6
f 453/12/6 450/12/6 454/12/6
f 451/12/6 452/12/6 455/12/6
f 455/12/6 452/12/6 456/12/6
f 457/9/6 458/9/6 461/9/6
f 461/9/6 458/9/6 462/9/6
f 459/9/6 460/9/6 463/9/6
f 463/9/6 460/9/6 464/9/6
f 465/9/6 466/9/6 467/9/6
f 467/9/6 466/9/6 468/9/6
f 469/1/6 470/1/6 472/1/6
f 472/1/6 470/1/6 473/1/6
f 471/1/6 472/1/6 476/1/6
f 473/1/6 474/1/6 476/1/6
f 472/1/6 473/1/6 476/1/6
f 476/1/6 474/1/6 477/1/6
f 477/1/6 474/1/6 478/1/6
f 478/1/6 474/1/6 479/1/6
f 475/1/6 476/1/6 481/1/6
f 476/1/6 477/1/6 481/1/6
f 481/1/6 477/1/6 482/1/6
f 482/1/6 477/1/6 483/1/6
f 479/1/6 480/1/6 484/1/6
f 478/1/6 479/1/6 484/1/6
f 484/1/6 480/1/6 485/1/6
f 485/1/6 480/1/6 486/1/6
f 482/1/6 483/1/6 487/1/6
f 484/1/6 485/1/6 487/1/6
f 483/1/6 484/1/6 487/1/6
f 487/1/6 485/1/6 488/1/6
f 488/1/6 485/1/6 489/1/6
f 489/1/6 485/1/6 490/1/6
f 488/1/6 489/1/6 491/1/6
f 491/1/6 489/1/6 492/1/6
f 493/1/6 494/1/6 497/1/6
f 497/1/6 494/1/6 498/1/6
f 495/1/6 496/1/6 499/1/6
f 499/1/6 496/1/6 500/1/6
f 501/1/6 502/1/6 505/1/6
f 505/1/6 502/1/6 506/1/6
f 503/1/6 504/1/6 507/1/6
f 507/1/6 504/1/6 508/1/6
f 509/5/6 510/5/6 511/5/6
f 511/5/6 510/5/6 512/5/6
f 513/1/6 514/1/6 516/1/6
f 516/1/6 514/1/6 517/1/6
f 515/1/6 516/1/6 519/1/6
f 517/1/6 518/1/6 519/1/6
f 516/1/6 517/1/6 519/1/6
f 519/1/6 518/1/6 520/1/6
f 520/1/6 518/1/6 521/1/6
f 521/1/6 518/1/6 522/1/6
f 520/1/6 521/1/6 523/1/6
f 523/1/6 521/1/6 524/1/6
