# MagicaVoxel @ Ephtracy

# group
o 

# material
mtllib armless-farmer.mtl
usemtl palette

# normals
vn -1 0 0
vn 1 0 0
vn 0 0 1
vn 0 0 -1
vn 0 -1 0
vn 0 1 0

# texcoords
vt 0.0371094 0.5
vt 0.0605469 0.5
vt 0.205078 0.5
vt 0.396484 0.5
vt 0.537109 0.5
vt 0.810547 0.5
vt 0.978516 0.5
vt 0.982422 0.5
vt 0.986328 0.5
vt 0.990234 0.5
vt 0.994141 0.5

# verts
v -0.4 1.2 0.1
v -0.4 1.2 -0.2
v -0.4 1.3 0.1
v -0.4 1.3 -0.2
v -0.3 1.2 0.2
v -0.3 1.2 0.1
v -0.3 1.2 -0.2
v -0.3 1.2 -0.3
v -0.3 1.3 0.2
v -0.3 1.3 0.1
v -0.3 1.3 -0.2
v -0.3 1.3 -0.3
v -0.2 0 2.98023e-008
v -0.2 0 -0.1
v -0.2 0.1 2.98023e-008
v -0.2 0.1 -0.1
v -0.2 0.3 0.1
v -0.2 0.3 2.98023e-008
v -0.2 0.3 -0.1
v -0.2 0.3 -0.2
v -0.2 0.5 2.98023e-008
v -0.2 0.5 -0.1
v -0.2 0.7 0.2
v -0.2 0.7 0.1
v -0.2 0.9 0.2
v -0.2 0.9 0.1
v -0.2 0.9 2.98023e-008
v -0.2 0.9 -0.1
v -0.2 0.9 -0.2
v -0.2 1 0.1
v -0.2 1 2.98023e-008
v -0.2 1.1 0.1
v -0.2 1.1 2.98023e-008
v -0.2 1.2 0.3
v -0.2 1.2 0.2
v -0.2 1.2 0.1
v -0.2 1.2 -0.2
v -0.2 1.2 -0.3
v -0.2 1.2 -0.4
v -0.2 1.3 0.3
v -0.2 1.3 0.2
v -0.2 1.3 0.1
v -0.2 1.3 -0.2
v -0.2 1.3 -0.3
v -0.2 1.3 -0.4
v -0.2 1.4 0.1
v -0.2 1.4 -0.2
v -0.2 1.5 0.1
v -0.2 1.5 2.98023e-008
v -0.2 1.5 -0.1
v -0.2 1.5 -0.2
v -0.2 1.6 2.98023e-008
v -0.2 1.6 -0.1
v -0.1 0.9 0.2
v -0.1 0.9 0.1
v -0.1 1 0.2
v -0.1 1 0.1
v -0.1 1.5 0.1
v -0.1 1.5 2.98023e-008
v -0.1 1.5 -0.1
v -0.1 1.5 -0.2
v -0.1 1.6 0.1
v -0.1 1.6 2.98023e-008
v -0.1 1.6 -0.1
v -0.1 1.6 -0.2
v 0.1 0 2.98023e-008
v 0.1 0 -0.1
v 0.1 0.1 2.98023e-008
v 0.1 0.1 -0.1
v 0.1 0.3 2.98023e-008
v 0.1 0.3 -0.1
v -0.1 0 2.98023e-008
v -0.1 0 -0.1
v -0.1 0.1 2.98023e-008
v -0.1 0.1 -0.1
v -0.1 0.3 2.98023e-008
v -0.1 0.3 -0.1
v 0.1 0.9 0.2
v 0.1 0.9 0.1
v 0.1 1 0.2
v 0.1 1 0.1
v 0.1 1.5 0.1
v 0.1 1.5 2.98023e-008
v 0.1 1.5 -0.1
v 0.1 1.5 -0.2
v 0.1 1.6 0.1
v 0.1 1.6 2.98023e-008
v 0.1 1.6 -0.1
v 0.1 1.6 -0.2
v 0.2 0 2.98023e-008
v 0.2 0 -0.1
v 0.2 0.1 2.98023e-008
v 0.2 0.1 -0.1
v 0.2 0.3 0.1
v 0.2 0.3 2.98023e-008
v 0.2 0.3 -0.1
v 0.2 0.3 -0.2
v 0.2 0.4 2.98023e-008
v 0.2 0.4 -0.1
v 0.2 0.7 0.2
v 0.2 0.7 0.1
v 0.2 0.7 2.98023e-008
v 0.2 0.7 -0.1
v 0.2 0.8 2.98023e-008
v 0.2 0.8 -0.1
v 0.2 0.9 0.2
v 0.2 0.9 0.1
v 0.2 0.9 2.98023e-008
v 0.2 0.9 -0.1
v 0.2 0.9 -0.2
v 0.2 1 0.1
v 0.2 1 2.98023e-008
v 0.2 1.1 0.1
v 0.2 1.1 2.98023e-008
v 0.2 1.2 0.3
v 0.2 1.2 0.2
v 0.2 1.2 0.1
v 0.2 1.2 -0.2
v 0.2 1.2 -0.3
v 0.2 1.2 -0.4
v 0.2 1.3 0.3
v 0.2 1.3 0.2
v 0.2 1.3 0.1
v 0.2 1.3 -0.2
v 0.2 1.3 -0.3
v 0.2 1.3 -0.4
v 0.2 1.4 0.1
v 0.2 1.4 -0.2
v 0.2 1.5 0.1
v 0.2 1.5 2.98023e-008
v 0.2 1.5 -0.1
v 0.2 1.5 -0.2
v 0.2 1.6 2.98023e-008
v 0.2 1.6 -0.1
v 0.3 0.4 2.98023e-008
v 0.3 0.4 -0.1
v 0.3 0.7 2.98023e-008
v 0.3 0.7 -0.1
v 0.3 0.8 2.98023e-008
v 0.3 0.8 -0.1
v 0.3 1.2 0.2
v 0.3 1.2 0.1
v 0.3 1.2 -0.2
v 0.3 1.2 -0.3
v 0.3 1.3 0.2
v 0.3 1.3 0.1
v 0.3 1.3 -0.2
v 0.3 1.3 -0.3
v 0.4 1.2 0.1
v 0.4 1.2 -0.2
v 0.4 1.3 0.1
v 0.4 1.3 -0.2
v -0.2 1.2 0.3
v -0.2 1.3 0.3
v 0.2 1.2 0.3
v 0.2 1.3 0.3
v -0.3 1.2 0.2
v -0.3 1.3 0.2
v -0.2 0.7 0.2
v -0.2 0.9 0.2
v -0.2 1.2 0.2
v -0.2 1.3 0.2
v -0.1 0.9 0.2
v -0.1 1 0.2
v 0.1 0.9 0.2
v 0.1 1 0.2
v 0.2 0.7 0.2
v 0.2 0.9 0.2
v 0.2 1.2 0.2
v 0.2 1.3 0.2
v 0.3 1.2 0.2
v 0.3 1.3 0.2
v -0.4 1.2 0.1
v -0.4 1.3 0.1
v -0.3 1.2 0.1
v -0.3 1.3 0.1
v -0.2 0.3 0.1
v -0.2 0.7 0.1
v -0.2 0.9 0.1
v -0.2 1 0.1
v -0.2 1.1 0.1
v -0.2 1.2 0.1
v -0.2 1.3 0.1
v -0.2 1.4 0.1
v -0.2 1.5 0.1
v -0.1 0.5 0.1
v -0.1 0.7 0.1
v -0.1 0.9 0.1
v -0.1 1 0.1
v -0.1 1.1 0.1
v -0.1 1.5 0.1
v -0.1 1.6 0.1
v 0.1 0.5 0.1
v 0.1 0.7 0.1
v 0.1 0.9 0.1
v 0.1 1 0.1
v 0.1 1.1 0.1
v 0.1 1.5 0.1
v 0.1 1.6 0.1
v 0.2 0.3 0.1
v 0.2 0.7 0.1
v 0.2 0.9 0.1
v 0.2 1 0.1
v 0.2 1.1 0.1
v 0.2 1.2 0.1
v 0.2 1.3 0.1
v 0.2 1.4 0.1
v 0.2 1.5 0.1
v 0.3 1.2 0.1
v 0.3 1.3 0.1
v 0.4 1.2 0.1
v 0.4 1.3 0.1
v -0.2 0 2.98023e-008
v -0.2 0.1 2.98023e-008
v -0.2 0.3 2.98023e-008
v -0.2 1.5 2.98023e-008
v -0.2 1.6 2.98023e-008
v -0.1 0 2.98023e-008
v -0.1 0.1 2.98023e-008
v -0.1 0.3 2.98023e-008
v -0.1 1.5 2.98023e-008
v -0.1 1.6 2.98023e-008
v 0.1 0 2.98023e-008
v 0.1 0.1 2.98023e-008
v 0.1 0.3 2.98023e-008
v 0.1 1.5 2.98023e-008
v 0.1 1.6 2.98023e-008
v 0.2 0 2.98023e-008
v 0.2 0.1 2.98023e-008
v 0.2 0.3 2.98023e-008
v 0.2 0.4 2.98023e-008
v 0.2 0.7 2.98023e-008
v 0.2 0.8 2.98023e-008
v 0.2 1.5 2.98023e-008
v 0.2 1.6 2.98023e-008
v 0.3 0.4 2.98023e-008
v 0.3 0.7 2.98023e-008
v 0.3 0.8 2.98023e-008
v -0.2 0 -0.1
v -0.2 0.1 -0.1
v -0.2 0.3 -0.1
v -0.2 1.5 -0.1
v -0.2 1.6 -0.1
v -0.1 0 -0.1
v -0.1 0.1 -0.1
v -0.1 0.3 -0.1
v -0.1 1.5 -0.1
v -0.1 1.6 -0.1
v 0.1 0 -0.1
v 0.1 0.1 -0.1
v 0.1 0.3 -0.1
v 0.1 1.5 -0.1
v 0.1 1.6 -0.1
v 0.2 0 -0.1
v 0.2 0.1 -0.1
v 0.2 0.3 -0.1
v 0.2 0.4 -0.1
v 0.2 0.7 -0.1
v 0.2 0.8 -0.1
v 0.2 1.5 -0.1
v 0.2 1.6 -0.1
v 0.3 0.4 -0.1
v 0.3 0.7 -0.1
v 0.3 0.8 -0.1
v -0.4 1.2 -0.2
v -0.4 1.3 -0.2
v -0.3 1.2 -0.2
v -0.3 1.3 -0.2
v -0.2 0.3 -0.2
v -0.2 0.9 -0.2
v -0.2 1.2 -0.2
v -0.2 1.3 -0.2
v -0.2 1.4 -0.2
v -0.2 1.5 -0.2
v -0.1 0.5 -0.2
v -0.1 0.9 -0.2
v -0.1 1.5 -0.2
v -0.1 1.6 -0.2
v 0.1 0.5 -0.2
v 0.1 0.9 -0.2
v 0.1 1.5 -0.2
v 0.1 1.6 -0.2
v 0.2 0.3 -0.2
v 0.2 0.9 -0.2
v 0.2 1.2 -0.2
v 0.2 1.3 -0.2
v 0.2 1.4 -0.2
v 0.2 1.5 -0.2
v 0.3 1.2 -0.2
v 0.3 1.3 -0.2
v 0.4 1.2 -0.2
v 0.4 1.3 -0.2
v -0.3 1.2 -0.3
v -0.3 1.3 -0.3
v -0.2 1.2 -0.3
v -0.2 1.3 -0.3
v 0.2 1.2 -0.3
v 0.2 1.3 -0.3
v 0.3 1.2 -0.3
v 0.3 1.3 -0.3
v -0.2 1.2 -0.4
v -0.2 1.3 -0.4
v 0.2 1.2 -0.4
v 0.2 1.3 -0.4
v -0.2 0 2.98023e-008
v -0.1 0 2.98023e-008
v 0.1 0 2.98023e-008
v 0.2 0 2.98023e-008
v -0.2 0 -0.1
v -0.1 0 -0.1
v 0.1 0 -0.1
v 0.2 0 -0.1
v -0.2 0.3 0.1
v 0.2 0.3 0.1
v -0.2 0.3 2.98023e-008
v -0.1 0.3 2.98023e-008
v 0.1 0.3 2.98023e-008
v 0.2 0.3 2.98023e-008
v -0.2 0.3 -0.1
v -0.1 0.3 -0.1
v 0.1 0.3 -0.1
v 0.2 0.3 -0.1
v -0.2 0.3 -0.2
v 0.2 0.3 -0.2
v 0.2 0.4 2.98023e-008
v 0.3 0.4 2.98023e-008
v 0.2 0.4 -0.1
v 0.3 0.4 -0.1
v -0.2 0.7 0.2
v 0.2 0.7 0.2
v -0.2 0.7 0.1
v -0.1 0.7 0.1
v 0.1 0.7 0.1
v 0.2 0.7 0.1
v -0.2 1.2 0.3
v 0.2 1.2 0.3
v -0.3 1.2 0.2
v -0.2 1.2 0.2
v 0.2 1.2 0.2
v 0.3 1.2 0.2
v -0.4 1.2 0.1
v -0.3 1.2 0.1
v -0.2 1.2 0.1
v 0.2 1.2 0.1
v 0.3 1.2 0.1
v 0.4 1.2 0.1
v -0.4 1.2 -0.2
v -0.3 1.2 -0.2
v -0.2 1.2 -0.2
v 0.2 1.2 -0.2
v 0.3 1.2 -0.2
v 0.4 1.2 -0.2
v -0.3 1.2 -0.3
v -0.2 1.2 -0.3
v 0.2 1.2 -0.3
v 0.3 1.2 -0.3
v -0.2 1.2 -0.4
v 0.2 1.2 -0.4
v 0.2 0.8 2.98023e-008
v 0.3 0.8 2.98023e-008
v 0.2 0.8 -0.1
v 0.3 0.8 -0.1
v -0.2 0.9 0.2
v -0.1 0.9 0.2
v 0.1 0.9 0.2
v 0.2 0.9 0.2
v -0.2 0.9 0.1
v -0.1 0.9 0.1
v 0.1 0.9 0.1
v 0.2 0.9 0.1
v -0.1 1 0.2
v 0.1 1 0.2
v -0.1 1 0.1
v 0.1 1 0.1
v -0.2 1.3 0.3
v 0.2 1.3 0.3
v -0.3 1.3 0.2
v -0.2 1.3 0.2
v 0.2 1.3 0.2
v 0.3 1.3 0.2
v -0.4 1.3 0.1
v -0.3 1.3 0.1
v -0.2 1.3 0.1
v 0.2 1.3 0.1
v 0.3 1.3 0.1
v 0.4 1.3 0.1
v -0.4 1.3 -0.2
v -0.3 1.3 -0.2
v -0.2 1.3 -0.2
v 0.2 1.3 -0.2
v 0.3 1.3 -0.2
v 0.4 1.3 -0.2
v -0.3 1.3 -0.3
v -0.2 1.3 -0.3
v 0.2 1.3 -0.3
v 0.3 1.3 -0.3
v -0.2 1.3 -0.4
v 0.2 1.3 -0.4
v -0.2 1.5 0.1
v -0.1 1.5 0.1
v 0.1 1.5 0.1
v 0.2 1.5 0.1
v -0.2 1.5 2.98023e-008
v -0.1 1.5 2.98023e-008
v 0.1 1.5 2.98023e-008
v 0.2 1.5 2.98023e-008
v -0.2 1.5 -0.1
v -0.1 1.5 -0.1
v 0.1 1.5 -0.1
v 0.2 1.5 -0.1
v -0.2 1.5 -0.2
v -0.1 1.5 -0.2
v 0.1 1.5 -0.2
v 0.2 1.5 -0.2
v -0.1 1.6 0.1
v 0.1 1.6 0.1
v -0.2 1.6 2.98023e-008
v -0.1 1.6 2.98023e-008
v 0.1 1.6 2.98023e-008
v 0.2 1.6 2.98023e-008
v -0.2 1.6 -0.1
v -0.1 1.6 -0.1
v 0.1 1.6 -0.1
v 0.2 1.6 -0.1
v -0.1 1.6 -0.2
v 0.1 1.6 -0.2

# faces
f 3/1/1 2/1/1 1/1/1
f 4/1/1 2/1/1 3/1/1
f 9/1/1 6/1/1 5/1/1
f 10/1/1 6/1/1 9/1/1
f 11/1/1 8/1/1 7/1/1
f 12/1/1 8/1/1 11/1/1
f 15/2/1 14/2/1 13/2/1
f 16/2/1 14/2/1 15/2/1
f 18/6/1 16/6/1 15/6/1
f 19/6/1 16/6/1 18/6/1
f 21/6/1 19/6/1 18/6/1
f 21/6/1 20/6/1 19/6/1
f 21/6/1 18/6/1 17/6/1
f 22/6/1 20/6/1 21/6/1
f 24/6/1 21/6/1 17/6/1
f 25/8/1 24/8/1 23/8/1
f 26/6/1 21/6/1 24/6/1
f 26/8/1 24/8/1 25/8/1
f 27/11/1 22/11/1 21/11/1
f 27/6/1 21/6/1 26/6/1
f 28/6/1 20/6/1 22/6/1
f 28/11/1 22/11/1 27/11/1
f 29/6/1 20/6/1 28/6/1
f 30/2/1 27/2/1 26/2/1
f 30/2/1 29/2/1 28/2/1
f 30/2/1 28/2/1 27/2/1
f 31/2/1 29/2/1 30/2/1
f 32/11/1 31/11/1 30/11/1
f 33/2/1 29/2/1 31/2/1
f 33/11/1 31/11/1 32/11/1
f 36/2/1 33/2/1 32/2/1
f 37/2/1 29/2/1 33/2/1
f 37/2/1 33/2/1 36/2/1
f 40/1/1 35/1/1 34/1/1
f 41/1/1 35/1/1 40/1/1
f 44/1/1 39/1/1 38/1/1
f 45/1/1 39/1/1 44/1/1
f 46/9/1 43/9/1 42/9/1
f 47/9/1 43/9/1 46/9/1
f 48/1/1 47/1/1 46/1/1
f 49/1/1 47/1/1 48/1/1
f 50/1/1 47/1/1 49/1/1
f 51/1/1 47/1/1 50/1/1
f 52/1/1 50/1/1 49/1/1
f 53/1/1 50/1/1 52/1/1
f 56/8/1 55/8/1 54/8/1
f 57/8/1 55/8/1 56/8/1
f 62/1/1 59/1/1 58/1/1
f 63/1/1 59/1/1 62/1/1
f 64/1/1 61/1/1 60/1/1
f 65/1/1 61/1/1 64/1/1
f 68/2/1 67/2/1 66/2/1
f 69/2/1 67/2/1 68/2/1
f 70/6/1 69/6/1 68/6/1
f 71/6/1 69/6/1 70/6/1
f 72/2/2 73/2/2 74/2/2
f 74/2/2 73/2/2 75/2/2
f 74/6/2 75/6/2 76/6/2
f 76/6/2 75/6/2 77/6/2
f 78/8/2 79/8/2 80/8/2
f 80/8/2 79/8/2 81/8/2
f 82/1/2 83/1/2 86/1/2
f 86/1/2 83/1/2 87/1/2
f 84/1/2 85/1/2 88/1/2
f 88/1/2 85/1/2 89/1/2
f 90/2/2 91/2/2 92/2/2
f 92/2/2 91/2/2 93/2/2
f 92/6/2 93/6/2 95/6/2
f 95/6/2 93/6/2 96/6/2
f 95/6/2 96/6/2 98/6/2
f 96/6/2 97/6/2 98/6/2
f 94/6/2 95/6/2 98/6/2
f 98/6/2 97/6/2 99/6/2
f 94/6/2 98/6/2 101/6/2
f 101/6/2 98/6/2 102/6/2
f 99/6/2 97/6/2 103/6/2
f 101/6/2 102/6/2 104/6/2
f 103/6/2 97/6/2 105/6/2
f 100/8/2 101/8/2 106/8/2
f 101/6/2 104/6/2 107/6/2
f 106/8/2 101/8/2 107/8/2
f 104/11/2 105/11/2 108/11/2
f 107/6/2 104/6/2 108/6/2
f 105/6/2 97/6/2 109/6/2
f 108/11/2 105/11/2 109/11/2
f 109/6/2 97/6/2 110/6/2
f 107/2/2 108/2/2 111/2/2
f 109/2/2 110/2/2 111/2/2
f 108/2/2 109/2/2 111/2/2
f 111/2/2 110/2/2 112/2/2
f 111/11/2 112/11/2 113/11/2
f 112/2/2 110/2/2 114/2/2
f 113/11/2 112/11/2 114/11/2
f 113/2/2 114/2/2 117/2/2
f 114/2/2 110/2/2 118/2/2
f 117/2/2 114/2/2 118/2/2
f 115/1/2 116/1/2 121/1/2
f 121/1/2 116/1/2 122/1/2
f 119/1/2 120/1/2 125/1/2
f 125/1/2 120/1/2 126/1/2
f 123/9/2 124/9/2 127/9/2
f 127/9/2 124/9/2 128/9/2
f 127/1/2 128/1/2 129/1/2
f 129/1/2 128/1/2 130/1/2
f 130/1/2 128/1/2 131/1/2
f 131/1/2 128/1/2 132/1/2
f 130/1/2 131/1/2 133/1/2
f 133/1/2 131/1/2 134/1/2
f 135/2/2 136/2/2 137/2/2
f 137/2/2 136/2/2 138/2/2
f 137/11/2 138/11/2 139/11/2
f 139/11/2 138/11/2 140/11/2
f 141/1/2 142/1/2 145/1/2
f 145/1/2 142/1/2 146/1/2
f 143/1/2 144/1/2 147/1/2
f 147/1/2 144/1/2 148/1/2
f 149/1/2 150/1/2 151/1/2
f 151/1/2 150/1/2 152/1/2
f 155/1/3 154/1/3 153/1/3
f 156/1/3 154/1/3 155/1/3
f 161/1/3 158/1/3 157/1/3
f 162/1/3 158/1/3 161/1/3
f 163/8/3 160/8/3 159/8/3
f 165/8/3 163/8/3 159/8/3
f 165/8/3 164/8/3 163/8/3
f 166/8/3 164/8/3 165/8/3
f 167/8/3 165/8/3 159/8/3
f 168/8/3 165/8/3 167/8/3
f 171/1/3 170/1/3 169/1/3
f 172/1/3 170/1/3 171/1/3
f 175/1/3 174/1/3 173/1/3
f 176/1/3 174/1/3 175/1/3
f 186/6/3 178/6/3 177/6/3
f 187/6/3 178/6/3 186/6/3
f 188/2/3 180/2/3 179/2/3
f 189/11/3 181/11/3 180/11/3
f 189/2/3 180/2/3 188/2/3
f 190/2/3 182/2/3 181/2/3
f 190/11/3 181/11/3 189/11/3
f 191/1/3 185/1/3 184/1/3
f 193/11/3 187/11/3 186/11/3
f 193/6/3 186/6/3 177/6/3
f 194/11/3 187/11/3 193/11/3
f 196/2/3 190/2/3 189/2/3
f 197/2/3 182/2/3 190/2/3
f 197/2/3 190/2/3 196/2/3
f 198/1/3 192/1/3 191/1/3
f 198/1/3 191/1/3 184/1/3
f 199/1/3 192/1/3 198/1/3
f 200/6/3 194/6/3 193/6/3
f 200/6/3 193/6/3 177/6/3
f 201/6/3 194/6/3 200/6/3
f 202/2/3 196/2/3 195/2/3
f 203/11/3 197/11/3 196/11/3
f 203/2/3 196/2/3 202/2/3
f 204/2/3 182/2/3 197/2/3
f 204/11/3 197/11/3 203/11/3
f 205/2/3 182/2/3 204/2/3
f 206/9/3 184/9/3 183/9/3
f 207/1/3 198/1/3 184/1/3
f 207/9/3 184/9/3 206/9/3
f 208/1/3 198/1/3 207/1/3
f 211/1/3 210/1/3 209/1/3
f 212/1/3 210/1/3 211/1/3
f 218/2/3 214/2/3 213/2/3
f 219/6/3 215/6/3 214/6/3
f 219/2/3 214/2/3 218/2/3
f 220/6/3 215/6/3 219/6/3
f 221/1/3 217/1/3 216/1/3
f 222/1/3 217/1/3 221/1/3
f 228/2/3 224/2/3 223/2/3
f 229/6/3 225/6/3 224/6/3
f 229/2/3 224/2/3 228/2/3
f 230/6/3 225/6/3 229/6/3
f 234/1/3 227/1/3 226/1/3
f 235/1/3 227/1/3 234/1/3
f 236/2/3 232/2/3 231/2/3
f 237/11/3 233/11/3 232/11/3
f 237/2/3 232/2/3 236/2/3
f 238/11/3 233/11/3 237/11/3
f 239/2/4 240/2/4 244/2/4
f 240/6/4 241/6/4 245/6/4
f 244/2/4 240/2/4 245/2/4
f 245/6/4 241/6/4 246/6/4
f 242/1/4 243/1/4 247/1/4
f 247/1/4 243/1/4 248/1/4
f 249/2/4 250/2/4 254/2/4
f 250/6/4 251/6/4 255/6/4
f 254/2/4 250/2/4 255/2/4
f 255/6/4 251/6/4 256/6/4
f 252/1/4 253/1/4 260/1/4
f 260/1/4 253/1/4 261/1/4
f 257/2/4 258/2/4 262/2/4
f 258/11/4 259/11/4 263/11/4
f 262/2/4 258/2/4 263/2/4
f 263/11/4 259/11/4 264/11/4
f 265/1/4 266/1/4 267/1/4
f 267/1/4 266/1/4 268/1/4
f 269/6/4 270/6/4 275/6/4
f 270/2/4 271/2/4 276/2/4
f 275/6/4 270/6/4 276/6/4
f 273/1/4 274/1/4 277/1/4
f 269/6/4 275/6/4 279/6/4
f 275/11/4 276/11/4 279/11/4
f 276/2/4 271/2/4 280/2/4
f 279/11/4 276/11/4 280/11/4
f 277/1/4 278/1/4 281/1/4
f 273/1/4 277/1/4 281/1/4
f 281/1/4 278/1/4 282/1/4
f 269/6/4 279/6/4 283/6/4
f 279/6/4 280/6/4 283/6/4
f 280/2/4 271/2/4 284/2/4
f 283/6/4 280/6/4 284/6/4
f 284/2/4 271/2/4 285/2/4
f 272/9/4 273/9/4 286/9/4
f 273/1/4 281/1/4 287/1/4
f 286/9/4 273/9/4 287/9/4
f 287/1/4 281/1/4 288/1/4
f 289/1/4 290/1/4 291/1/4
f 291/1/4 290/1/4 292/1/4
f 293/1/4 294/1/4 295/1/4
f 295/1/4 294/1/4 296/1/4
f 297/1/4 298/1/4 299/1/4
f 299/1/4 298/1/4 300/1/4
f 301/1/4 302/1/4 303/1/4
f 303/1/4 302/1/4 304/1/4
f 309/2/5 306/2/5 305/2/5
f 310/2/5 306/2/5 309/2/5
f 311/2/5 308/2/5 307/2/5
f 312/2/5 308/2/5 311/2/5
f 315/6/5 314/6/5 313/6/5
f 316/6/5 314/6/5 315/6/5
f 317/6/5 314/6/5 316/6/5
f 318/6/5 314/6/5 317/6/5
f 320/6/5 317/6/5 316/6/5
f 321/6/5 317/6/5 320/6/5
f 323/6/5 320/6/5 319/6/5
f 323/6/5 322/6/5 321/6/5
f 323/6/5 321/6/5 320/6/5
f 324/6/5 322/6/5 323/6/5
f 327/2/5 326/2/5 325/2/5
f 328/2/5 326/2/5 327/2/5
f 331/8/5 330/8/5 329/8/5
f 332/8/5 330/8/5 331/8/5
f 333/8/5 330/8/5 332/8/5
f 334/8/5 330/8/5 333/8/5
f 338/1/5 336/1/5 335/1/5
f 339/1/5 336/1/5 338/1/5
f 342/1/5 338/1/5 337/1/5
f 342/1/5 340/1/5 339/1/5
f 342/1/5 339/1/5 338/1/5
f 343/1/5 340/1/5 342/1/5
f 344/1/5 340/1/5 343/1/5
f 345/1/5 340/1/5 344/1/5
f 347/1/5 342/1/5 341/1/5
f 347/1/5 343/1/5 342/1/5
f 348/1/5 343/1/5 347/1/5
f 349/1/5 343/1/5 348/1/5
f 350/1/5 346/1/5 345/1/5
f 350/1/5 345/1/5 344/1/5
f 351/1/5 346/1/5 350/1/5
f 352/1/5 346/1/5 351/1/5
f 353/1/5 349/1/5 348/1/5
f 353/1/5 351/1/5 350/1/5
f 353/1/5 350/1/5 349/1/5
f 354/1/5 351/1/5 353/1/5
f 355/1/5 351/1/5 354/1/5
f 356/1/5 351/1/5 355/1/5
f 357/1/5 355/1/5 354/1/5
f 358/1/5 355/1/5 357/1/5
f 359/11/6 360/11/6 361/11/6
f 361/11/6 360/11/6 362/11/6
f 363/8/6 364/8/6 367/8/6
f 367/8/6 364/8/6 368/8/6
f 365/8/6 366/8/6 369/8/6
f 369/8/6 366/8/6 370/8/6
f 371/8/6 372/8/6 373/8/6
f 373/8/6 372/8/6 374/8/6
f 375/1/6 376/1/6 378/1/6
f 378/1/6 376/1/6 379/1/6
f 377/1/6 378/1/6 382/1/6
f 379/1/6 380/1/6 382/1/6
f 378/1/6 379/1/6 382/1/6
f 382/1/6 380/1/6 383/1/6
f 383/1/6 380/1/6 384/1/6
f 384/1/6 380/1/6 385/1/6
f 381/1/6 382/1/6 387/1/6
f 382/1/6 383/1/6 387/1/6
f 387/1/6 383/1/6 388/1/6
f 388/1/6 383/1/6 389/1/6
f 385/1/6 386/1/6 390/1/6
f 384/1/6 385/1/6 390/1/6
f 390/1/6 386/1/6 391/1/6
f 391/1/6 386/1/6 392/1/6
f 388/1/6 389/1/6 393/1/6
f 390/1/6 391/1/6 393/1/6
f 389/1/6 390/1/6 393/1/6
f 393/1/6 391/1/6 394/1/6
f 394/1/6 391/1/6 395/1/6
f 395/1/6 391/1/6 396/1/6
f 394/1/6 395/1/6 397/1/6
f 397/1/6 395/1/6 398/1/6
f 399/1/6 400/1/6 403/1/6
f 403/1/6 400/1/6 404/1/6
f 401/1/6 402/1/6 405/1/6
f 405/1/6 402/1/6 406/1/6
f 407/1/6 408/1/6 411/1/6
f 411/1/6 408/1/6 412/1/6
f 409/1/6 410/1/6 413/1/6
f 413/1/6 410/1/6 414/1/6
f 415/1/6 416/1/6 418/1/6
f 418/1/6 416/1/6 419/1/6
f 417/1/6 418/1/6 421/1/6
f 419/1/6 420/1/6 421/1/6
f 418/1/6 419/1/6 421/1/6
f 421/1/6 420/1/6 422/1/6
f 422/1/6 420/1/6 423/1/6
f 423/1/6 420/1/6 424/1/6
f 422/1/6 423/1/6 425/1/6
f 425/1/6 423/1/6 426/1/6
