# MagicaVoxel @ Ephtracy

# group
o 

# material
mtllib playercar.mtl
usemtl palette

# normals
vn -1 0 0
vn 1 0 0
vn 0 0 1
vn 0 0 -1
vn 0 -1 0
vn 0 1 0

# texcoords
vt 0.0332031 0.5
vt 0.232422 0.5
vt 0.970703 0.5
vt 0.982422 0.5
vt 0.994141 0.5

# verts
v -0.4 0 0.3
v -0.4 0 0.1
v -0.4 0 -0.2
v -0.4 0 -0.4
v -0.4 0.2 0.3
v -0.4 0.2 0.1
v -0.4 0.2 -0.2
v -0.4 0.2 -0.4
v -0.3 0.1 0.4
v -0.3 0.1 0.3
v -0.3 0.1 0.1
v -0.3 0.1 0
v -0.3 0.1 -0.1
v -0.3 0.1 -0.2
v -0.3 0.1 -0.4
v -0.3 0.1 -0.5
v -0.3 0.2 0.4
v -0.3 0.2 0.3
v -0.3 0.2 0.1
v -0.3 0.2 0
v -0.3 0.2 -0.1
v -0.3 0.2 -0.2
v -0.3 0.2 -0.4
v -0.3 0.2 -0.5
v -0.3 0.3 0.3
v -0.3 0.3 0.1
v -0.3 0.3 -0.2
v -0.3 0.3 -0.4
v -0.2 0.1 0
v -0.2 0.1 -0.1
v -0.2 0.2 0.4
v -0.2 0.2 0.3
v -0.2 0.2 0.1
v -0.2 0.2 0
v -0.2 0.2 -0.1
v -0.2 0.2 -0.2
v -0.2 0.2 -0.4
v -0.2 0.2 -0.5
v -0.2 0.3 0.4
v -0.2 0.3 0.3
v -0.2 0.3 0.2
v -0.2 0.3 0.1
v -0.2 0.3 -0.1
v -0.2 0.3 -0.2
v -0.2 0.3 -0.3
v -0.2 0.3 -0.4
v -0.2 0.3 -0.5
v -0.2 0.4 0.1
v -0.2 0.4 -0.1
v -0.2 0.4 -0.2
v -0.2 0.4 -0.3
v -0.2 0.5 0.2
v -0.2 0.5 -0.4
v 0.2 0 0.3
v 0.2 0 0.1
v 0.2 0 -0.2
v 0.2 0 -0.4
v 0.2 0.1 0.3
v 0.2 0.1 0.1
v 0.2 0.1 -0.2
v 0.2 0.1 -0.4
v -0.2 0 0.3
v -0.2 0 0.1
v -0.2 0 -0.2
v -0.2 0 -0.4
v -0.2 0.1 0.3
v -0.2 0.1 0.1
v -0.2 0.1 -0.2
v -0.2 0.1 -0.4
v 0.2 0.1 0
v 0.2 0.1 -0.1
v 0.2 0.2 0.4
v 0.2 0.2 0.3
v 0.2 0.2 0.1
v 0.2 0.2 0
v 0.2 0.2 -0.1
v 0.2 0.2 -0.2
v 0.2 0.2 -0.4
v 0.2 0.2 -0.5
v 0.2 0.3 0.4
v 0.2 0.3 0.3
v 0.2 0.3 0.2
v 0.2 0.3 0.1
v 0.2 0.3 -0.1
v 0.2 0.3 -0.2
v 0.2 0.3 -0.3
v 0.2 0.3 -0.4
v 0.2 0.3 -0.5
v 0.2 0.4 0.1
v 0.2 0.4 -0.1
v 0.2 0.4 -0.2
v 0.2 0.4 -0.3
v 0.2 0.5 0.2
v 0.2 0.5 -0.4
v 0.3 0.1 0.4
v 0.3 0.1 0.3
v 0.3 0.1 0.1
v 0.3 0.1 0
v 0.3 0.1 -0.1
v 0.3 0.1 -0.2
v 0.3 0.1 -0.4
v 0.3 0.1 -0.5
v 0.3 0.2 0.4
v 0.3 0.2 0.3
v 0.3 0.2 0.1
v 0.3 0.2 0
v 0.3 0.2 -0.1
v 0.3 0.2 -0.2
v 0.3 0.2 -0.4
v 0.3 0.2 -0.5
v 0.3 0.3 0.3
v 0.3 0.3 0.1
v 0.3 0.3 -0.2
v 0.3 0.3 -0.4
v 0.4 0 0.3
v 0.4 0 0.1
v 0.4 0 -0.2
v 0.4 0 -0.4
v 0.4 0.2 0.3
v 0.4 0.2 0.1
v 0.4 0.2 -0.2
v 0.4 0.2 -0.4
v -0.3 0.1 0.4
v -0.3 0.2 0.4
v -0.2 0.2 0.4
v -0.2 0.3 0.4
v -0.1 0.1 0.4
v -0.1 0.3 0.4
v 0.1 0.1 0.4
v 0.1 0.3 0.4
v 0.2 0.2 0.4
v 0.2 0.3 0.4
v 0.3 0.1 0.4
v 0.3 0.2 0.4
v -0.4 0 0.3
v -0.4 0.2 0.3
v -0.3 0.1 0.3
v -0.3 0.2 0.3
v -0.3 0.3 0.3
v -0.2 0 0.3
v -0.2 0.1 0.3
v -0.2 0.2 0.3
v -0.2 0.3 0.3
v 0.2 0 0.3
v 0.2 0.1 0.3
v 0.2 0.2 0.3
v 0.2 0.3 0.3
v 0.3 0.1 0.3
v 0.3 0.2 0.3
v 0.3 0.3 0.3
v 0.4 0 0.3
v 0.4 0.2 0.3
v -0.2 0.3 0.2
v -0.2 0.5 0.2
v -0.1 0.3 0.2
v -0.1 0.4 0.2
v 0.1 0.3 0.2
v 0.1 0.4 0.2
v 0.2 0.3 0.2
v 0.2 0.5 0.2
v -0.3 0.1 -0.1
v -0.3 0.2 -0.1
v -0.2 0.1 -0.1
v -0.2 0.2 -0.1
v 0.2 0.1 -0.1
v 0.2 0.2 -0.1
v 0.3 0.1 -0.1
v 0.3 0.2 -0.1
v -0.4 0 -0.2
v -0.4 0.2 -0.2
v -0.3 0.1 -0.2
v -0.3 0.2 -0.2
v -0.3 0.3 -0.2
v -0.2 0 -0.2
v -0.2 0.1 -0.2
v -0.2 0.2 -0.2
v -0.2 0.3 -0.2
v 0.2 0 -0.2
v 0.2 0.1 -0.2
v 0.2 0.2 -0.2
v 0.2 0.3 -0.2
v 0.3 0.1 -0.2
v 0.3 0.2 -0.2
v 0.3 0.3 -0.2
v 0.4 0 -0.2
v 0.4 0.2 -0.2
v -0.4 0 0.1
v -0.4 0.2 0.1
v -0.3 0.1 0.1
v -0.3 0.2 0.1
v -0.3 0.3 0.1
v -0.2 0 0.1
v -0.2 0.1 0.1
v -0.2 0.2 0.1
v -0.2 0.3 0.1
v 0.2 0 0.1
v 0.2 0.1 0.1
v 0.2 0.2 0.1
v 0.2 0.3 0.1
v 0.3 0.1 0.1
v 0.3 0.2 0.1
v 0.3 0.3 0.1
v 0.4 0 0.1
v 0.4 0.2 0.1
v -0.3 0.1 0
v -0.3 0.2 0
v -0.2 0.1 0
v -0.2 0.2 0
v 0.2 0.1 0
v 0.2 0.2 0
v 0.3 0.1 0
v 0.3 0.2 0
v -0.4 0 -0.4
v -0.4 0.2 -0.4
v -0.3 0.1 -0.4
v -0.3 0.2 -0.4
v -0.3 0.3 -0.4
v -0.2 0 -0.4
v -0.2 0.1 -0.4
v -0.2 0.2 -0.4
v -0.2 0.3 -0.4
v -0.2 0.5 -0.4
v -0.1 0.3 -0.4
v -0.1 0.4 -0.4
v 0.1 0.3 -0.4
v 0.1 0.4 -0.4
v 0.2 0 -0.4
v 0.2 0.1 -0.4
v 0.2 0.2 -0.4
v 0.2 0.3 -0.4
v 0.2 0.5 -0.4
v 0.3 0.1 -0.4
v 0.3 0.2 -0.4
v 0.3 0.3 -0.4
v 0.4 0 -0.4
v 0.4 0.2 -0.4
v -0.3 0.1 -0.5
v -0.3 0.2 -0.5
v -0.2 0.2 -0.5
v -0.2 0.3 -0.5
v -0.1 0.1 -0.5
v -0.1 0.3 -0.5
v 0.1 0.1 -0.5
v 0.1 0.3 -0.5
v 0.2 0.2 -0.5
v 0.2 0.3 -0.5
v 0.3 0.1 -0.5
v 0.3 0.2 -0.5
v -0.4 0 0.3
v -0.2 0 0.3
v 0.2 0 0.3
v 0.4 0 0.3
v -0.4 0 0.1
v -0.2 0 0.1
v 0.2 0 0.1
v 0.4 0 0.1
v -0.4 0 -0.2
v -0.2 0 -0.2
v 0.2 0 -0.2
v 0.4 0 -0.2
v -0.4 0 -0.4
v -0.2 0 -0.4
v 0.2 0 -0.4
v 0.4 0 -0.4
v -0.3 0.1 0.4
v -0.1 0.1 0.4
v 0.1 0.1 0.4
v 0.3 0.1 0.4
v -0.3 0.1 0.3
v -0.2 0.1 0.3
v 0.2 0.1 0.3
v 0.3 0.1 0.3
v -0.3 0.1 0.1
v -0.2 0.1 0.1
v 0.2 0.1 0.1
v 0.3 0.1 0.1
v -0.3 0.1 0
v -0.2 0.1 0
v 0.2 0.1 0
v 0.3 0.1 0
v -0.3 0.1 -0.1
v -0.2 0.1 -0.1
v 0.2 0.1 -0.1
v 0.3 0.1 -0.1
v -0.3 0.1 -0.2
v -0.2 0.1 -0.2
v 0.2 0.1 -0.2
v 0.3 0.1 -0.2
v -0.3 0.1 -0.4
v -0.2 0.1 -0.4
v 0.2 0.1 -0.4
v 0.3 0.1 -0.4
v -0.3 0.1 -0.5
v -0.1 0.1 -0.5
v 0.1 0.1 -0.5
v 0.3 0.1 -0.5
v -0.3 0.2 0.4
v -0.2 0.2 0.4
v 0.2 0.2 0.4
v 0.3 0.2 0.4
v -0.4 0.2 0.3
v -0.3 0.2 0.3
v -0.2 0.2 0.3
v 0.2 0.2 0.3
v 0.3 0.2 0.3
v 0.4 0.2 0.3
v -0.4 0.2 0.1
v -0.3 0.2 0.1
v -0.2 0.2 0.1
v 0.2 0.2 0.1
v 0.3 0.2 0.1
v 0.4 0.2 0.1
v -0.3 0.2 0
v -0.2 0.2 0
v 0.2 0.2 0
v 0.3 0.2 0
v -0.3 0.2 -0.1
v -0.2 0.2 -0.1
v 0.2 0.2 -0.1
v 0.3 0.2 -0.1
v -0.4 0.2 -0.2
v -0.3 0.2 -0.2
v -0.2 0.2 -0.2
v 0.2 0.2 -0.2
v 0.3 0.2 -0.2
v 0.4 0.2 -0.2
v -0.4 0.2 -0.4
v -0.3 0.2 -0.4
v -0.2 0.2 -0.4
v 0.2 0.2 -0.4
v 0.3 0.2 -0.4
v 0.4 0.2 -0.4
v -0.3 0.2 -0.5
v -0.2 0.2 -0.5
v 0.2 0.2 -0.5
v 0.3 0.2 -0.5
v -0.2 0.3 0.4
v -0.1 0.3 0.4
v 0.1 0.3 0.4
v 0.2 0.3 0.4
v -0.3 0.3 0.3
v -0.2 0.3 0.3
v 0.2 0.3 0.3
v 0.3 0.3 0.3
v -0.2 0.3 0.2
v -0.1 0.3 0.2
v 0.1 0.3 0.2
v 0.2 0.3 0.2
v -0.3 0.3 0.1
v -0.2 0.3 0.1
v 0.2 0.3 0.1
v 0.3 0.3 0.1
v -0.3 0.3 -0.2
v -0.2 0.3 -0.2
v 0.2 0.3 -0.2
v 0.3 0.3 -0.2
v -0.2 0.3 -0.3
v 0.2 0.3 -0.3
v -0.3 0.3 -0.4
v -0.2 0.3 -0.4
v -0.1 0.3 -0.4
v 0.1 0.3 -0.4
v 0.2 0.3 -0.4
v 0.3 0.3 -0.4
v -0.2 0.3 -0.5
v -0.1 0.3 -0.5
v 0.1 0.3 -0.5
v 0.2 0.3 -0.5
v -0.2 0.5 0.2
v 0.2 0.5 0.2
v -0.2 0.5 -0.4
v 0.2 0.5 -0.4

# faces
f 5/5/1 2/5/1 1/5/1
f 6/5/1 2/5/1 5/5/1
f 7/5/1 4/5/1 3/5/1
f 8/5/1 4/5/1 7/5/1
f 17/2/1 10/2/1 9/2/1
f 18/2/1 10/2/1 17/2/1
f 19/2/1 12/2/1 11/2/1
f 20/2/1 12/2/1 19/2/1
f 21/2/1 14/2/1 13/2/1
f 22/2/1 14/2/1 21/2/1
f 23/2/1 16/2/1 15/2/1
f 24/2/1 16/2/1 23/2/1
f 25/2/1 19/2/1 18/2/1
f 26/2/1 19/2/1 25/2/1
f 27/2/1 23/2/1 22/2/1
f 28/2/1 23/2/1 27/2/1
f 34/2/1 30/2/1 29/2/1
f 35/2/1 30/2/1 34/2/1
f 39/2/1 32/2/1 31/2/1
f 40/2/1 32/2/1 39/2/1
f 42/2/1 34/2/1 33/2/1
f 42/2/1 35/2/1 34/2/1
f 42/2/1 36/2/1 35/2/1
f 43/2/1 36/2/1 42/2/1
f 44/2/1 36/2/1 43/2/1
f 46/2/1 38/2/1 37/2/1
f 47/2/1 38/2/1 46/2/1
f 48/3/1 42/3/1 41/3/1
f 48/5/1 43/5/1 42/5/1
f 49/3/1 44/3/1 43/3/1
f 49/5/1 43/5/1 48/5/1
f 50/5/1 45/5/1 44/5/1
f 50/3/1 44/3/1 49/3/1
f 51/3/1 46/3/1 45/3/1
f 51/5/1 45/5/1 50/5/1
f 52/3/1 49/3/1 48/3/1
f 52/3/1 50/3/1 49/3/1
f 52/3/1 51/3/1 50/3/1
f 52/3/1 48/3/1 41/3/1
f 53/3/1 46/3/1 51/3/1
f 53/3/1 51/3/1 52/3/1
f 58/5/1 55/5/1 54/5/1
f 59/5/1 55/5/1 58/5/1
f 60/5/1 57/5/1 56/5/1
f 61/5/1 57/5/1 60/5/1
f 62/5/2 63/5/2 66/5/2
f 66/5/2 63/5/2 67/5/2
f 64/5/2 65/5/2 68/5/2
f 68/5/2 65/5/2 69/5/2
f 70/2/2 71/2/2 75/2/2
f 75/2/2 71/2/2 76/2/2
f 72/2/2 73/2/2 80/2/2
f 80/2/2 73/2/2 81/2/2
f 74/2/2 75/2/2 83/2/2
f 75/2/2 76/2/2 83/2/2
f 76/2/2 77/2/2 83/2/2
f 83/2/2 77/2/2 84/2/2
f 84/2/2 77/2/2 85/2/2
f 78/2/2 79/2/2 87/2/2
f 87/2/2 79/2/2 88/2/2
f 82/3/2 83/3/2 89/3/2
f 83/5/2 84/5/2 89/5/2
f 84/3/2 85/3/2 90/3/2
f 89/5/2 84/5/2 90/5/2
f 85/5/2 86/5/2 91/5/2
f 90/3/2 85/3/2 91/3/2
f 86/3/2 87/3/2 92/3/2
f 91/5/2 86/5/2 92/5/2
f 89/3/2 90/3/2 93/3/2
f 90/3/2 91/3/2 93/3/2
f 91/3/2 92/3/2 93/3/2
f 82/3/2 89/3/2 93/3/2
f 92/3/2 87/3/2 94/3/2
f 93/3/2 92/3/2 94/3/2
f 95/2/2 96/2/2 103/2/2
f 103/2/2 96/2/2 104/2/2
f 97/2/2 98/2/2 105/2/2
f 105/2/2 98/2/2 106/2/2
f 99/2/2 100/2/2 107/2/2
f 107/2/2 100/2/2 108/2/2
f 101/2/2 102/2/2 109/2/2
f 109/2/2 102/2/2 110/2/2
f 104/2/2 105/2/2 111/2/2
f 111/2/2 105/2/2 112/2/2
f 108/2/2 109/2/2 113/2/2
f 113/2/2 109/2/2 114/2/2
f 115/5/2 116/5/2 119/5/2
f 119/5/2 116/5/2 120/5/2
f 117/5/2 118/5/2 121/5/2
f 121/5/2 118/5/2 122/5/2
f 125/2/3 124/2/3 123/2/3
f 127/2/3 125/2/3 123/2/3
f 127/2/3 126/2/3 125/2/3
f 128/2/3 126/2/3 127/2/3
f 129/1/3 128/1/3 127/1/3
f 130/1/3 128/1/3 129/1/3
f 131/2/3 130/2/3 129/2/3
f 132/2/3 130/2/3 131/2/3
f 133/2/3 131/2/3 129/2/3
f 134/2/3 131/2/3 133/2/3
f 137/5/3 136/5/3 135/5/3
f 138/5/3 136/5/3 137/5/3
f 140/5/3 137/5/3 135/5/3
f 141/5/3 137/5/3 140/5/3
f 142/2/3 139/2/3 138/2/3
f 143/2/3 139/2/3 142/2/3
f 148/5/3 145/5/3 144/5/3
f 149/2/3 147/2/3 146/2/3
f 150/2/3 147/2/3 149/2/3
f 151/5/3 148/5/3 144/5/3
f 151/5/3 149/5/3 148/5/3
f 152/5/3 149/5/3 151/5/3
f 155/3/3 154/3/3 153/3/3
f 156/3/3 154/3/3 155/3/3
f 157/5/3 156/5/3 155/5/3
f 158/3/3 154/3/3 156/3/3
f 158/5/3 156/5/3 157/5/3
f 159/3/3 158/3/3 157/3/3
f 160/3/3 154/3/3 158/3/3
f 160/3/3 158/3/3 159/3/3
f 163/2/3 162/2/3 161/2/3
f 164/2/3 162/2/3 163/2/3
f 167/2/3 166/2/3 165/2/3
f 168/2/3 166/2/3 167/2/3
f 171/5/3 170/5/3 169/5/3
f 172/5/3 170/5/3 171/5/3
f 174/5/3 171/5/3 169/5/3
f 175/5/3 171/5/3 174/5/3
f 176/2/3 173/2/3 172/2/3
f 177/2/3 173/2/3 176/2/3
f 182/5/3 179/5/3 178/5/3
f 183/2/3 181/2/3 180/2/3
f 184/2/3 181/2/3 183/2/3
f 185/5/3 182/5/3 178/5/3
f 185/5/3 183/5/3 182/5/3
f 186/5/3 183/5/3 185/5/3
f 187/5/4 188/5/4 189/5/4
f 189/5/4 188/5/4 190/5/4
f 187/5/4 189/5/4 192/5/4
f 192/5/4 189/5/4 193/5/4
f 190/2/4 191/2/4 194/2/4
f 194/2/4 191/2/4 195/2/4
f 196/5/4 197/5/4 200/5/4
f 198/2/4 199/2/4 201/2/4
f 201/2/4 199/2/4 202/2/4
f 196/5/4 200/5/4 203/5/4
f 200/5/4 201/5/4 203/5/4
f 203/5/4 201/5/4 204/5/4
f 205/2/4 206/2/4 207/2/4
f 207/2/4 206/2/4 208/2/4
f 209/2/4 210/2/4 211/2/4
f 211/2/4 210/2/4 212/2/4
f 213/5/4 214/5/4 215/5/4
f 215/5/4 214/5/4 216/5/4
f 213/5/4 215/5/4 218/5/4
f 218/5/4 215/5/4 219/5/4
f 216/2/4 217/2/4 220/2/4
f 220/2/4 217/2/4 221/2/4
f 221/3/4 222/3/4 223/3/4
f 223/3/4 222/3/4 224/3/4
f 223/5/4 224/5/4 225/5/4
f 224/3/4 222/3/4 226/3/4
f 225/5/4 224/5/4 226/5/4
f 225/3/4 226/3/4 230/3/4
f 226/3/4 222/3/4 231/3/4
f 230/3/4 226/3/4 231/3/4
f 227/5/4 228/5/4 232/5/4
f 229/2/4 230/2/4 233/2/4
f 233/2/4 230/2/4 234/2/4
f 227/5/4 232/5/4 235/5/4
f 232/5/4 233/5/4 235/5/4
f 235/5/4 233/5/4 236/5/4
f 237/2/4 238/2/4 239/2/4
f 237/2/4 239/2/4 241/2/4
f 239/2/4 240/2/4 241/2/4
f 241/2/4 240/2/4 242/2/4
f 241/1/4 242/1/4 243/1/4
f 243/1/4 242/1/4 244/1/4
f 243/2/4 244/2/4 245/2/4
f 245/2/4 244/2/4 246/2/4
f 243/2/4 245/2/4 247/2/4
f 247/2/4 245/2/4 248/2/4
f 253/5/5 250/5/5 249/5/5
f 254/5/5 250/5/5 253/5/5
f 255/5/5 252/5/5 251/5/5
f 256/5/5 252/5/5 255/5/5
f 261/5/5 258/5/5 257/5/5
f 262/5/5 258/5/5 261/5/5
f 263/5/5 260/5/5 259/5/5
f 264/5/5 260/5/5 263/5/5
f 269/2/5 266/2/5 265/2/5
f 270/2/5 266/2/5 269/2/5
f 271/2/5 268/2/5 267/2/5
f 272/2/5 268/2/5 271/2/5
f 274/2/5 266/2/5 270/2/5
f 275/2/5 271/2/5 267/2/5
f 277/2/5 274/2/5 273/2/5
f 278/2/5 266/2/5 274/2/5
f 278/2/5 274/2/5 277/2/5
f 279/2/5 276/2/5 275/2/5
f 279/2/5 275/2/5 267/2/5
f 280/2/5 276/2/5 279/2/5
f 282/2/5 266/2/5 278/2/5
f 283/2/5 279/2/5 267/2/5
f 285/2/5 282/2/5 281/2/5
f 286/2/5 266/2/5 282/2/5
f 286/2/5 282/2/5 285/2/5
f 287/2/5 284/2/5 283/2/5
f 287/2/5 283/2/5 267/2/5
f 288/2/5 284/2/5 287/2/5
f 290/2/5 266/2/5 286/2/5
f 291/2/5 287/2/5 267/2/5
f 293/2/5 290/2/5 289/2/5
f 294/1/5 267/1/5 266/1/5
f 294/2/5 290/2/5 293/2/5
f 294/2/5 266/2/5 290/2/5
f 295/2/5 292/2/5 291/2/5
f 295/1/5 267/1/5 294/1/5
f 295/2/5 291/2/5 267/2/5
f 296/2/5 292/2/5 295/2/5
f 297/2/6 298/2/6 302/2/6
f 302/2/6 298/2/6 303/2/6
f 299/2/6 300/2/6 304/2/6
f 304/2/6 300/2/6 305/2/6
f 301/5/6 302/5/6 307/5/6
f 307/5/6 302/5/6 308/5/6
f 305/5/6 306/5/6 311/5/6
f 311/5/6 306/5/6 312/5/6
f 308/2/6 309/2/6 313/2/6
f 313/2/6 309/2/6 314/2/6
f 310/2/6 311/2/6 315/2/6
f 315/2/6 311/2/6 316/2/6
f 317/2/6 318/2/6 322/2/6
f 322/2/6 318/2/6 323/2/6
f 319/2/6 320/2/6 324/2/6
f 324/2/6 320/2/6 325/2/6
f 321/5/6 322/5/6 327/5/6
f 327/5/6 322/5/6 328/5/6
f 325/5/6 326/5/6 331/5/6
f 331/5/6 326/5/6 332/5/6
f 328/2/6 329/2/6 333/2/6
f 333/2/6 329/2/6 334/2/6
f 330/2/6 331/2/6 335/2/6
f 335/2/6 331/2/6 336/2/6
f 337/2/6 338/2/6 342/2/6
f 339/2/6 340/2/6 343/2/6
f 341/2/6 342/2/6 345/2/6
f 342/2/6 338/2/6 345/2/6
f 338/1/6 339/1/6 346/1/6
f 345/2/6 338/2/6 346/2/6
f 343/2/6 344/2/6 347/2/6
f 346/1/6 339/1/6 347/1/6
f 339/2/6 343/2/6 347/2/6
f 347/2/6 344/2/6 348/2/6
f 341/2/6 345/2/6 349/2/6
f 349/2/6 345/2/6 350/2/6
f 348/2/6 344/2/6 351/2/6
f 351/2/6 344/2/6 352/2/6
f 353/2/6 354/2/6 357/2/6
f 355/2/6 356/2/6 358/2/6
f 353/2/6 357/2/6 359/2/6
f 359/2/6 357/2/6 360/2/6
f 358/2/6 356/2/6 363/2/6
f 363/2/6 356/2/6 364/2/6
f 360/2/6 361/2/6 365/2/6
f 361/1/6 362/1/6 366/1/6
f 365/2/6 361/2/6 366/2/6
f 362/2/6 363/2/6 367/2/6
f 366/1/6 362/1/6 367/1/6
f 367/2/6 363/2/6 368/2/6
f 369/3/6 370/3/6 371/3/6
f 371/3/6 370/3/6 372/3/6
